<?xml version="1.0" encoding="UTF-8" standalone="no"?>
<!-- Created with Vectornator (http://vectornator.io/) -->

<svg height="480.57397" stroke-miterlimit="10" style="clip-rule:evenodd;fill-rule:nonzero;stroke-linecap:round;stroke-linejoin:round" version="1.1" viewBox="0 0 1300.7621 480.57398" width="1300.7621" xml:space="preserve" id="svg1496" sodipodi:docname="Enakissimo.White.text_IMPROVED - Text only.svg" inkscape:version="1.2.2 (732a01da63, 2022-12-09)" xmlns:inkscape="http://www.inkscape.org/namespaces/inkscape" xmlns:sodipodi="http://sodipodi.sourceforge.net/DTD/sodipodi-0.dtd" xmlns="http://www.w3.org/2000/svg" xmlns:svg="http://www.w3.org/2000/svg" xmlns:vectornator="http://vectornator.io"><sodipodi:namedview id="namedview1498" pagecolor="#ffffff" bordercolor="#666666" borderopacity="1.0" inkscape:showpageshadow="2" inkscape:pageopacity="0.0" inkscape:pagecheckerboard="0" inkscape:deskcolor="#d1d1d1" showgrid="false" inkscape:zoom="0.383029" inkscape:cx="121.40073" inkscape:cy="65.269209" inkscape:window-width="2560" inkscape:window-height="1560" inkscape:window-x="-12" inkscape:window-y="-12" inkscape:window-maximized="1" inkscape:current-layer="layer2" />
<defs id="defs1422" />
<clipPath id="ArtboardFrame">
<rect height="2680.46" width="2688.9299" x="0" y="0" id="rect1424" />
</clipPath>
<g clip-path="url(#ArtboardFrame)" id="layer2" vectornator:layerName="layer2" transform="translate(-699.963,-1099.626)">

<path d="M 148.11538,147.65461 H 2540.8146 v 0 2385.15079 0 H 148.11538 v 0 z" fill="#ffffff" fill-rule="evenodd" opacity="1" stroke="none" id="path1664" style="clip-rule:evenodd;display:none;fill:#000000;fill-opacity:1;fill-rule:nonzero;stroke-width:1;stroke-linecap:round;stroke-linejoin:round" inkscape:label="black blackground" />
<g opacity="1" id="g1493" transform="translate(0,24.216014)" inkscape:label="Frame and Enakissimo">

<g opacity="1" id="g1491" inkscape:label="Enakissimo">
<g opacity="0" id="g1437" style="display:none;opacity:0.5" inkscape:label="tongue inner areas">
<path d="m 1575.93,1443.81 c 1.33,0.52 2.56,0.92 3.79,1.44 4.4,1.63 8.18,3.37 11.46,5.52 10.33,6.65 17.7,13.1 23.23,20.47 9.51,12.79 14.73,25.48 15.86,38.68 0.92,10.34 -0.72,18.83 -5.02,26.1 -4.19,7.06 -10.54,11.46 -19.34,13.4 -2.86,0.62 -5.32,0.92 -7.57,0.92 -2.56,0 -4.81,-0.3 -6.96,-1.12 -6.14,-2.05 -10.64,-6.35 -14.12,-13.41 -1.94,-3.99 -2.86,-8.59 -2.97,-15.14 v -1.03 c -0.1,-6.85 -0.2,-14.02 -2.04,-21.18 -2.05,-7.78 -4.61,-14.53 -7.78,-20.57 -0.31,-0.61 -0.62,-1.23 -0.92,-1.74 -1.23,-2.35 -2.46,-4.81 -4.1,-7.06 -2.66,-3.89 -5.62,-7.88 -9.21,-11.36 2.36,-1.23 4.71,-2.56 7.07,-3.99 3.99,-2.35 7.88,-4.91 11.66,-7.57 0.21,-0.21 0.51,-0.31 0.72,-0.51 1.23,-0.93 2.45,-1.85 3.68,-2.66 z" fill="#14757a" fill-rule="evenodd" opacity="1" stroke="none" id="path1433" style="display:inline" inkscape:label="tongue inner area" />
<path d="m 1598.34,1551.78 c -2.66,0 -5.12,-0.41 -7.47,-1.13 -6.55,-2.25 -11.36,-6.75 -15.04,-14.22 -2.05,-4.2 -3.07,-9.01 -3.17,-15.76 v -1.03 c -0.11,-6.75 -0.21,-13.81 -2.05,-20.77 -1.95,-7.68 -4.5,-14.23 -7.68,-20.26 -0.3,-0.51 -0.61,-1.13 -0.92,-1.64 l -0.1,-0.1 c -1.23,-2.25 -2.46,-4.71 -3.99,-6.96 -2.46,-3.48 -5.42,-7.57 -9.01,-11.16 l -1.53,-1.43 1.84,-1.02 c 2.25,-1.23 4.61,-2.56 6.96,-3.89 3.99,-2.35 7.88,-4.91 11.56,-7.57 l 0.72,-0.51 c 1.23,-0.93 2.46,-1.74 3.58,-2.67 l 0.72,-0.51 3.48,1.33 c 1.33,0.52 2.56,0.92 3.78,1.44 4.51,1.63 8.39,3.48 11.77,5.62 10.54,6.76 18.01,13.31 23.54,20.88 9.72,13.1 14.94,25.99 16.17,39.4 0.92,10.64 -0.72,19.44 -5.22,27.01 -4.4,7.47 -11.05,12.08 -20.37,14.13 -2.55,0.51 -5.11,0.82 -7.57,0.82 z m -45.64,-93.84 c 3.17,3.37 5.73,6.95 7.98,10.13 1.64,2.45 2.97,4.91 4.2,7.26 l 0.1,0.1 c 0.31,0.52 0.61,1.13 0.82,1.64 3.27,6.24 5.93,13.1 7.98,20.98 1.95,7.37 2.05,14.53 2.15,21.59 v 1.03 c 0.1,6.24 0.92,10.74 2.87,14.42 3.27,6.66 7.57,10.75 13.2,12.69 3.89,1.33 8.08,1.33 13.71,0.11 8.39,-1.85 14.43,-5.94 18.32,-12.69 4.09,-6.96 5.73,-15.25 4.81,-25.28 -1.13,-12.89 -6.25,-25.28 -15.66,-37.86 -5.32,-7.17 -12.59,-13.61 -22.82,-20.06 -3.17,-2.05 -6.86,-3.79 -11.16,-5.32 -1.22,-0.41 -2.55,-0.92 -3.78,-1.43 l -1.95,-0.72 c -1.02,0.72 -1.94,1.54 -2.96,2.25 l -0.72,0.51 c -3.79,2.66 -7.67,5.32 -11.77,7.68 -1.84,1.02 -3.58,2.04 -5.32,2.97 z" fill="#14757a" fill-rule="evenodd" opacity="0" stroke="none" id="path1435" style="display:inline;opacity:0.5" inkscape:label="tongue inner area filling" />
</g>
<path d="m 1571.01,1440.46 c 0,0 47.45,17.87 55.56,47.43 8.11,29.56 6.29,48.83 -9.12,59.52 -15.42,10.68 -47.12,6.6 -45.98,-28.97 0,0 3.31,-31.79 -22.11,-59.98 z" fill="#14757a" fill-rule="evenodd" opacity="0" stroke="none" id="path1477" style="clip-rule:evenodd;display:inline;opacity:0.5;fill:#ffffff;fill-opacity:1;fill-rule:nonzero;stroke-linecap:round;stroke-linejoin:round" inkscape:label="tongue inner area" /><path d="m 1588.42,1468.48 c -3.07,-6.25 -6.86,-12.28 -12.39,-17.3 -2.15,-1.94 -4.5,-3.68 -7.16,-5.22 -3.79,2.66 -7.68,5.22 -11.67,7.58 4.51,0.51 9.01,2.04 13.1,4.81 4.91,3.27 9.21,7.98 12.79,13.2 3.69,5.22 6.76,11.05 9.52,17.09 2.76,6.03 5.22,12.17 7.57,18.42 -1.43,-6.55 -2.86,-13 -4.7,-19.45 -1.85,-6.44 -4.1,-12.89 -7.06,-19.13 z" fill="#14757a" fill-rule="evenodd" opacity="1" stroke="none" id="path1439" style="display:inline;fill:#ffffff;fill-opacity:1" inkscape:label="tongue inner line" />
<path d="m 806.594,1283.87 c 0.921,-0.31 2.047,-0.92 2.661,-1.74 1.74,-2.36 1.126,-5.53 -1.126,-7.27 -2.046,-1.43 -5.219,-1.12 -7.061,1.13 l -0.307,0.61 c -10.233,13.41 -11.973,30.7 -11.154,47.07 0.921,11.36 3.172,23.13 6.447,34.18 h -42.673 c -11.666,-0.61 -14.02,-11.35 -14.634,-14.63 V 1237 h 12.587 c 11.359,0 14.327,6.45 14.327,27.73 v 2.05 h 3.786 v -51.17 h -3.786 c 0,9.62 -3.786,12.59 -7.266,12.59 H 738.85 v -49.12 c 0,-8.5 3.786,-15.25 13.405,-15.45 h 42.673 c 7.573,0 8.801,5.52 8.801,7.26 v 24.25 h 3.479 v -50.04 h -3.479 v 0.62 c 0,1.74 -0.921,6.44 -7.266,7.26 h -96.5 v 1.13 c 7.266,0 18.727,5.52 18.727,20.47 v 171.71 c 0,15.25 -11.359,20.77 -18.727,20.77 v 0.92 h 91.281 c 3.48,0.31 7.88,0.93 9.927,2.97 l -0.307,-0.3 c 0.307,0 0.307,0.3 0.307,0.3 1.739,2.05 4.707,2.66 6.754,1.13 2.353,-1.74 2.66,-4.71 1.125,-6.76 -7.879,-10.84 -13.201,-28.96 -14.633,-42.36 -1.945,-13.71 -1.024,-35 12.177,-39.09 z" fill="#14757a" fill-rule="evenodd" opacity="1" stroke="none" id="path1441" inkscape:label="E" style="fill:#ffffff;fill-opacity:1" />
<path d="m 914.453,1154.31 c 7.266,0 18.727,5.53 18.727,20.78 v 125.76 c -15.759,-97.42 -64.06,-146.54 -79.206,-147.66 h -38.886 v 1.12 c 7.265,0 18.727,5.53 18.727,20.78 v 171.41 c 0,15.24 -11.359,20.77 -18.727,20.77 v 1.12 h 57.613 v -1.12 c -7.265,0 -18.727,-5.53 -18.727,-20.77 v -167.42 c 38.58,19.03 64.368,83.3 71.02,138.05 2.66,38.27 -9.62,51.16 0.307,51.16 h 46.766 v -1.12 c -7.266,0 -18.727,-5.53 -18.727,-20.78 v -171.41 c 0,-15.24 11.359,-20.77 18.727,-20.77 v -1.12 h -57.614 z" fill="#14757a" fill-rule="evenodd" opacity="1" stroke="none" id="path1443" inkscape:label="N" style="fill:#ffffff;fill-opacity:1" />
<path d="m 1022.31,1367.17 c -7.27,0 -17.3,-4.1 -13.71,-21.39 l 7.26,-35.41 c 2.36,-0.31 4.71,-0.92 7.06,-0.92 32.75,-1.43 42.37,31.01 27.22,44.21 -6.14,5.22 -18.42,5.83 -23.43,-1.43 -1.43,-2.05 -1.74,-4.71 -1.13,-6.76 0.92,-2.35 2.66,-3.78 4.4,-3.78 0.92,0 1.44,0 2.05,-0.31 2.66,-1.13 3.79,-4.09 2.97,-6.76 -2.66,-5.83 -10.24,-2.66 -14.02,2.05 -1.43,2.05 -2.66,4.4 -2.97,6.76 -1.43,6.44 1.43,11.97 6.14,16.37 8.19,7.26 22.51,5.52 30.09,-1.74 18.72,-17.3 5.01,-57.61 -37.46,-52.6 l 21.08,-101.21 32.44,141.84 c 3.17,16.68 -6.75,21.08 -13.4,21.08 v 1.12 h 54.44 v -1.12 c -7.27,0 -16.38,-3.18 -20.47,-20.78 v 0.31 l -44.21,-193.61 h -5.83 l -31.93,153.8 c -2.66,0.62 -5.22,1.43 -7.87,2.36 -7.883,3.17 -13.409,7.57 -19.037,12.28 l -0.307,0.3 c -0.307,0.31 -0.614,0.62 -0.921,1.13 -1.433,2.35 -0.614,5.22 1.74,6.75 2.353,1.44 5.219,0.92 7.061,-1.43 4.093,-6.75 10.544,-11.97 17.804,-14.94 l -7.571,36.02 c -4.4,14.02 -15.452,17.81 -22.513,17.81 v 1.12 h 45.024 z" fill="#14757a" fill-rule="evenodd" opacity="1" stroke="none" id="path1445" inkscape:label="A" style="fill:#ffffff;fill-opacity:1" />
<path d="m 1990.79,1174.78 c -2.97,-6.14 -6.45,-12.28 -10.85,-18.11 -3.78,-5.22 -8.19,-10.24 -13.2,-14.64 -5.22,-5.01 -10.85,-9.31 -16.68,-13.4 -5.01,-3.48 -9.93,-6.45 -14.94,-9.93 -2.05,-1.43 -4.4,-2.97 -6.75,-3.17 -2.67,-0.31 -5.53,1.12 -7.07,3.17 -2.04,3.48 -1.12,7.88 2.36,10.23 1.12,0.93 2.66,1.13 4.09,1.13 10.54,0 21.08,4.09 29.58,9.93 8.8,5.52 16.37,13.2 22.51,21.59 3.48,4.71 6.45,9.93 9.11,15.25 5.01,10.84 7.88,22.2 8.49,33.97 0.92,11.97 -0.61,24.25 -4.4,35.72 -3.79,12.28 -10.23,23.63 -18.42,33.66 -3.17,3.79 -6.75,7.58 -10.54,10.85 -1.43,0.92 -2.66,2.05 -4.09,2.97 1.74,-9.93 2.66,-20.47 2.66,-31.93 0,-65.8 -29.58,-108.78 -65.8,-108.78 -36.23,0 -65.5,42.98 -65.5,108.78 0,65.8 29.27,108.78 65.5,108.78 28.34,0 52.6,-26.3 61.7,-69.59 17.5,-12.89 30.09,-33.05 34.49,-43.9 1.43,-3.17 2.66,-6.75 3.48,-9.92 3.48,-12.28 5.01,-25.18 3.79,-37.76 -1.03,-12.08 -4.3,-23.85 -9.52,-34.9 z m -88.62,189.42 c -16.68,0.92 -32.13,-17.3 -41.24,-48.3 0.3,0.3 3.78,1.12 4.4,1.12 2.66,0.92 5.01,1.44 7.57,2.05 6.45,1.43 12.89,2.35 19.34,2.66 5.83,0.31 11.67,0 17.5,-0.92 8.19,-0.92 16.37,-2.97 24.25,-6.14 1.44,-0.31 2.66,-0.92 4.1,-1.43 -6.14,31.11 -19.55,50.14 -35.92,50.96 z m 37.15,-59.05 c -21.39,9.31 -65.5,6.45 -83.3,-12.28 -1.44,-9.11 -2.66,-18.72 -3.18,-28.65 -0.92,-18.42 0,-34.79 2.36,-49.12 2.96,4.71 6.75,9.11 11.36,11.67 7.06,3.78 16.68,5.21 24.25,2.04 18.42,-7.06 16.68,-34.18 3.48,-31 -4.4,1.12 -6.76,5.83 -5.53,10.23 2.66,10.85 0,18.11 -7.26,19.03 -14.33,1.44 -29.58,-15.76 -17.3,-43.28 7.88,-16.38 21.9,-26.61 36.02,-23.13 21.08,7.06 38.28,44.21 41.24,98.85 0.52,16.99 -0.1,32.24 -2.14,45.64 z" fill="#14757a" fill-rule="evenodd" opacity="1" stroke="none" id="path1447" inkscape:label="O" style="fill:#ffffff;fill-opacity:1" />
<path d="m 1662.64,1388.63 c -2.27,2.42 -3.81,5.35 -4.98,8.42 -3.88,10.41 -3.88,10.41 -13.11,15.9 3.88,2.64 7.84,2.86 11.79,3.08 7.47,0.44 14.58,-1.32 21.1,-4.84 6.6,-3.51 9.31,-11.65 6.52,-18.61 -3.73,-9.23 -14.5,-11.21 -21.32,-3.95 z m 9.38,22.34 c -0.66,0.37 -1.39,0.66 -2.12,0.95 -0.74,0.3 -1.47,0.52 -2.2,0.74 -0.73,0.14 -1.54,0.36 -2.27,0.44 -0.81,0.07 -1.54,0.14 -2.35,0.14 -1.54,0 -3.07,-0.14 -4.61,-0.66 v -0.14 c 3,0 5.93,-0.44 8.79,-1.25 2.86,-0.73 5.64,-1.83 8.35,-3.22 l 0.07,0.14 c -1.02,1.18 -2.27,2.06 -3.66,2.86 z" fill="#14757a" fill-rule="evenodd" opacity="1" stroke="none" id="path1449" inkscape:label="droplet big inner" style="display:inline;opacity:0.5;fill:#ffffff;fill-opacity:1" />
<path d="m 1644.04,1412.7 c 0,0 0.18,2.8 14.7,3.52 14.51,0.72 32.28,-9.98 25.15,-23.54 -7.1,-13.52 -21.75,-8.17 -25.73,3.05 0,0 -2.32,5.95 -2.74,7.09 -0.86,2.33 -1.92,4.54 -4.42,6.4 -2.5,1.86 -6.96,3.48 -6.96,3.48 z" fill="none" fill-rule="evenodd" opacity="1" stroke="#14757a" stroke-linecap="round" stroke-linejoin="round" stroke-width="3" id="path1451" style="display:inline;fill:none;fill-opacity:1;stroke:#ffffff;stroke-opacity:1" inkscape:label="droplet big outer" />
<path d="m 1651.94,1426.87 c -7.3,-0.94 -14.04,0.47 -20,5.73 5.88,-0.16 8.78,3.68 11.45,7.76 1.25,1.89 2.82,3.38 4.78,4.55 3.3,2.04 6.59,2.43 9.89,0.08 3.14,-2.2 4.55,-6.27 3.69,-10.04 -1.18,-4.63 -4.24,-7.37 -9.81,-8.08 z m 6.04,9.1 h -0.16 c -0.23,-0.71 -0.47,-1.41 -0.78,-2.04 -0.39,-0.63 -0.86,-1.18 -1.49,-1.57 -0.55,-0.39 -1.26,-0.7 -1.96,-0.94 -0.71,-0.24 -1.41,-0.39 -2.12,-0.55 v -0.16 c 0.78,-0.47 1.65,-0.62 2.51,-0.55 0.86,0.08 1.73,0.32 2.51,0.87 0.78,0.55 1.33,1.33 1.65,2.19 0.23,0.95 0.15,1.89 -0.16,2.75 z" fill="#14757a" fill-rule="evenodd" opacity="1" stroke="none" id="path1453" style="display:inline;opacity:0.5;fill:#ffffff;fill-opacity:1" inkscape:label="droplet small inner" />
<path d="m 1631.9,1432.66 c 0,0 5.64,-3.1 12.67,8.68 7.02,11.79 22.56,0.45 16.18,-9.08 -6.37,-9.53 -21.77,-6.32 -28.85,0.4 z" fill="none" fill-rule="evenodd" opacity="1" stroke="#14757a" stroke-linecap="round" stroke-linejoin="round" stroke-width="3" id="path1455" style="display:inline;fill:none;fill-opacity:1;stroke:#ffffff;stroke-opacity:1" inkscape:label="droplet small outer" />
<path d="m 1300.55,1147.97 c 5.63,0.31 10.34,-1.84 14.43,-5.42 4.09,-3.48 5.63,-7.99 4.91,-13.31 -0.41,-2.86 -1.53,-5.52 -2.66,-8.18 -2.56,-6.04 -5.93,-11.67 -9.11,-17.4 -2.55,-4.5 -4.6,-9.21 -5.42,-14.33 -0.51,-3.17 -0.2,-6.24 2.66,-8.29 2.76,-1.94 2.97,-2.96 0.92,-5.63 -0.82,0 -1.53,0 -2.35,0 -0.1,0.21 -0.1,0.41 -0.21,0.41 -4.09,3.07 -4.81,7.17 -4.09,11.87 0.72,4.41 2.66,8.29 4.61,12.18 2.96,6.14 6.14,12.08 8.59,18.52 1.64,4.51 2.97,9.11 1.33,13.92 -2.35,6.86 -7.16,10.85 -14.22,12.38 -1.03,0.21 -2.15,0.21 -2.46,1.54 0.41,1.64 1.74,1.74 3.07,1.74 z" fill="#14757a" fill-rule="evenodd" opacity="1" stroke="none" id="path1457" inkscape:label="I 1 accent" style="fill:#ffffff;fill-opacity:1" />
<path d="m 1264.74,1172.12 c 1.43,5.01 7.26,9.62 12.89,8.19 3.17,-0.62 5.83,-2.36 6.75,-5.53 0.92,-2.66 0.62,-5.22 -1.12,-7.27 l -0.31,-0.3 c -0.92,-1.13 -2.66,-1.44 -3.79,-0.62 -1.12,0.82 -1.12,2.66 -0.3,3.79 l 0.61,0.61 c 0.92,0.31 1.43,1.44 1.13,2.66 -0.31,1.13 -1.13,2.36 -2.05,2.97 -4.09,1.74 -9.31,-1.43 -10.85,-5.22 -2.04,-5.83 1.74,-13.2 8.8,-15.24 1.44,-0.31 3.18,-0.62 4.71,-0.62 4.71,0.31 9.62,2.36 13.71,6.45 2.36,3.17 3.79,7.57 3.79,13.2 v 171.41 c 0,15.25 -11.15,20.77 -18.73,20.77 v 1.13 h 57.92 v -1.13 c -7.57,0 -18.72,-5.53 -18.72,-20.77 v -171.62 c 0,-15.24 11.15,-20.77 18.72,-20.77 v -1.12 h -57.92 v 0.3 c -5.22,0 -9.92,2.36 -13.4,7.27 -2.15,3.27 -2.97,7.67 -1.84,11.46 z" fill="#14757a" fill-rule="evenodd" opacity="1" stroke="none" id="path1459" inkscape:label="I 1" style="fill:#ffffff;fill-opacity:1" />
<path d="m 1407.69,1294.61 c -1.73,-23.94 -19.85,-26.91 -31,-26.91 -22.52,0 -45.95,14.33 -45.95,44.21 0,38.06 30.7,57.3 61.4,57.3 52.39,0 68.97,-44.72 67.54,-71.02 -3.17,-41.85 -52.09,-60.27 -75.42,-85.14 h -0.31 c -10.23,-11.15 -13.71,-25.17 -7.06,-39.19 0,0 0,-0.31 0.31,-0.31 3.79,-7.57 10.85,-13.2 19.03,-15.76 2.97,-0.92 6.14,-1.12 9.32,-1.12 17.8,0 32.44,14.32 32.44,32.13 0,7.27 -2.36,13.71 -6.14,19.03 -1.74,2.36 -4.1,5.02 -4.41,5.02 -2.66,4.09 0.31,9.92 5.22,9.92 7.06,0 17.3,-14.63 17.3,-33.97 0,-19.34 -20.16,-36.84 -46.77,-36.84 -29.27,0 -51.78,22.51 -49.73,52.09 3.17,44.21 76.34,48.81 79.82,97.93 0,32.13 -9.93,56.18 -41.86,57.61 -36.53,0 -40.11,-41.24 -40.11,-47.68 0,-17.3 8.19,-38.58 25.48,-38.58 6.14,0 12.59,2.66 15.76,8.18 3.17,5.53 2.46,10.24 1.74,14.33 -1.64,0 -3.28,0.1 -4.91,0.31 -4.51,0.61 -8.7,2.04 -12.59,3.89 -3.89,1.84 -7.47,4.19 -10.74,6.75 3.78,-1.84 7.67,-3.27 11.66,-4.09 3.99,-0.92 7.98,-1.33 11.87,-0.92 1.95,0.2 3.79,0.51 5.53,1.12 1.84,0.51 3.58,1.23 5.32,2.05 3.48,1.64 6.65,3.68 9.72,6.04 0.31,0.2 0.72,0.51 1.13,0.71 2.86,1.33 6.24,0.1 7.57,-2.76 1.33,-2.87 0.1,-6.24 -2.76,-7.57 h -0.11 c -2.76,-1.33 -5.62,-2.36 -8.49,-3.28 0.2,-1.23 0.2,-2.35 0.2,-3.48 z" fill="#14757a" fill-rule="evenodd" opacity="1" stroke="none" id="path1461" inkscape:label="S 1" style="fill:#ffffff;fill-opacity:1" />
<path d="m 1528.35,1369.21 c 52.39,0 68.97,-44.72 67.54,-71.02 -3.18,-41.85 -52.09,-60.27 -75.42,-85.14 h -0.31 c -10.23,-11.15 -13.71,-25.17 -7.06,-39.19 0,0 0,-0.31 0.3,-0.31 3.79,-7.57 10.85,-13.2 19.04,-15.76 2.97,-0.92 6.14,-1.12 9.31,-1.12 17.81,0 32.44,14.32 32.44,32.13 0,7.27 -2.35,13.71 -6.14,19.03 -1.74,2.36 -4.09,5.02 -4.4,5.02 -2.66,4.09 0.31,9.92 5.22,9.92 7.06,0 17.29,-14.63 17.29,-33.97 0,-19.34 -20.16,-36.84 -46.76,-36.84 -29.27,0 -51.78,22.51 -49.74,52.09 3.18,44.21 76.34,48.81 79.82,97.93 0,32.13 -9.92,56.18 -41.85,57.61 -36.53,0 -40.12,-41.24 -40.12,-47.68 0,-17.3 8.19,-38.58 25.49,-38.58 6.14,0 12.58,2.66 15.75,8.18 5.12,8.8 0.11,15.56 1.54,20.78 -0.1,0 -0.2,0 -0.31,-0.11 -2.25,-0.3 -4.6,-0.4 -6.96,-0.2 -2.25,0.2 -4.5,0.51 -6.75,1.02 -4.5,0.92 -8.8,2.56 -12.89,4.51 l -0.11,0.1 c -0.41,0.2 -0.71,0.41 -1.02,0.61 -2.46,1.95 -2.86,5.53 -0.92,7.98 1.94,2.46 5.53,2.87 7.98,0.93 3.07,-2.36 6.24,-4.4 9.72,-6.04 1.74,-0.82 3.58,-1.54 5.32,-2.05 1.74,-0.51 3.59,-0.92 5.53,-1.12 3.79,-0.31 7.88,0.1 11.87,0.92 3.99,0.92 7.88,2.35 11.67,4.09 -3.28,-2.56 -6.86,-4.91 -10.75,-6.75 -0.51,-0.21 -0.92,-0.41 -1.43,-0.62 2.46,-2.45 2.76,-7.16 2.46,-10.85 -1.74,-23.94 -19.86,-26.91 -31.01,-26.91 -22.51,0 -45.95,14.33 -45.95,44.21 0.21,37.86 30.91,57.2 61.61,57.2 z" fill="#14757a" fill-rule="evenodd" opacity="1" stroke="none" id="path1463" inkscape:label="S 2" style="fill:#ffffff;fill-opacity:1" />
<path d="m 1604.28,1180.31 c 3.17,-0.62 5.83,-2.36 6.75,-5.53 0.92,-2.66 0.61,-5.22 -1.13,-7.27 l -0.3,-0.3 c -0.92,-1.13 -2.66,-1.44 -3.79,-0.62 -1.12,0.92 -1.12,2.66 -0.31,3.79 l 0.62,0.61 c 0.92,0.31 1.43,1.44 1.12,2.66 -0.3,1.13 -1.12,2.36 -2.04,2.97 -4.1,1.74 -9.31,-1.43 -10.85,-5.22 -2.05,-5.83 1.74,-13.2 8.8,-15.24 1.43,-0.31 3.17,-0.62 4.71,-0.62 4.71,0.31 9.62,2.36 13.71,6.45 2.35,3.17 3.79,7.57 3.79,13.2 v 171.41 c 0,15.25 -11.16,20.77 -18.73,20.77 v 1.13 h 57.92 v -1.13 c -7.57,0 -18.73,-5.53 -18.73,-20.77 v -171.62 c 0,-15.24 11.16,-20.77 18.73,-20.77 v -1.12 h -57.92 v 0.3 c -5.22,0 -9.93,2.36 -13.41,7.27 -2.04,3.17 -2.96,7.57 -1.73,11.36 1.33,5.01 7.26,9.72 12.79,8.29 z" fill="#14757a" fill-rule="evenodd" opacity="1" stroke="none" id="path1465" inkscape:label="I 2" style="fill:#ffffff;fill-opacity:1" />
<path d="m 1818.56,1346.09 v -171.62 c 0,-13.4 9.62,-20.46 18.73,-20.46 v -1.13 h -19.55 c -32.13,0 -57.61,76.03 -64.36,113.49 -14.33,-80.74 -48.31,-112.26 -60.28,-113.49 h -21.39 v 1.13 c 7.58,0 18.73,5.83 18.73,20.46 v 171.72 c 0,15.25 -11.36,20.77 -18.73,20.77 v 0.92 h 57.62 v -0.92 c -7.27,0 -18.73,-5.52 -18.73,-20.77 v -152.48 l 2.66,3.17 c 25.18,33.36 38.07,92.41 35.72,132.73 -0.93,8.8 -2.36,17.29 -5.22,25.69 -2.66,7.88 4.09,16.06 11.97,14.32 5.53,-1.12 9.11,-7.06 8.19,-12.89 l -0.31,-0.31 c -1.74,-9.11 -2.66,-18.11 -3.48,-26.91 -4.09,-40.32 7.88,-98.86 33.67,-132.73 1.43,-2.04 2.97,-3.78 4.7,-5.83 v 155.03 c 0,15.25 -11.35,20.78 -18.72,20.78 v 0.92 h 57.61 v -0.92 c -7.47,0.1 -18.83,-5.43 -18.83,-20.67 z" fill="#14757a" fill-rule="evenodd" opacity="1" stroke="none" id="path1467" inkscape:label="M" style="fill:#ffffff;fill-opacity:1" />
<path d="m 1508.8,1494.98 c -33.05,11.05 -65.8,11.05 -98.75,0 23.23,22.1 74.29,22.62 98.75,0 z" fill="#14757a" fill-rule="evenodd" opacity="1" stroke="none" id="path1469" inkscape:label="chin" style="fill:#ffffff;fill-opacity:1" />
<path d="m 1395.24,1313.14 c 0,0 14.53,0.5 14.24,20.36 0,0 -0.71,14.95 -13.6,16.24 -12.89,1.28 -15.95,-16.67 -16.16,-17.8 -0.22,-1.14 0.43,-18.59 15.52,-18.8 z" fill="#14757a" fill-rule="evenodd" opacity="0" stroke="none" id="path1471" style="display:inline;opacity:0.5;fill:#ffffff;fill-opacity:1" inkscape:label="iris" />
<path d="m 1394.88,1311.51 c -8.88,0.01 -16.06,8.92 -16.04,19.88 0.02,10.97 7.23,19.83 16.1,19.81 8.88,-0.01 16.05,-8.91 16.03,-19.87 -0.02,-10.97 -7.22,-19.84 -16.09,-19.82 z m 0,2.5 c 7.66,0 13.96,7.78 13.96,17.32 0,9.62 -6.12,17.34 -13.87,17.34 -7.66,0 -14,-7.74 -14,-17.28 0,-9.62 6.16,-17.38 13.91,-17.38 z" fill="#14757a" fill-rule="evenodd" opacity="1" stroke="none" id="path1473" style="display:inline;fill:#ffffff;fill-opacity:1" inkscape:label="iris outer circle" />


<path d="m 1120.86,1174.78 c 0.61,-1.13 0.61,-2.35 0.3,-3.48 0,-1.12 -0.61,-2.66 -1.43,-3.48 l -0.31,-0.61 c -0.92,-1.13 -2.66,-1.13 -3.78,-0.31 -1.13,0.92 -1.13,2.35 -0.31,3.48 0.31,0.31 0.31,0.61 0.61,0.61 0.92,0.62 1.44,1.74 1.13,2.97 -0.31,1.13 -1.13,2.05 -2.05,2.66 -4.09,2.05 -9.31,-1.43 -10.85,-5.22 -2.04,-5.52 1.74,-12.89 8.81,-14.94 5.83,-1.94 12.58,-0.51 16.78,3.79 v 0 c 1.53,1.84 2.76,3.99 3.68,6.55 1.13,3.17 1.23,6.55 1.23,9.92 0,56.08 0,112.16 0,168.24 0,0.82 0,1.64 0,2.56 -0.41,11.36 -6.45,18.11 -17.6,19.85 -0.41,0.1 -0.92,-0.1 -1.02,0.61 1.94,0.82 57,0.62 57.92,-0.3 -0.72,-0.51 -1.64,-0.41 -2.36,-0.51 -4.3,-0.82 -7.98,-2.56 -11.05,-5.84 -4.09,-4.4 -5.22,-9.72 -5.22,-15.45 0,-34.08 0,-68.15 0,-102.23 0,-0.61 -0.2,-1.23 0.31,-1.94 6.04,2.55 12.07,4.4 18.62,4.29 0.21,0 0.51,0 0.72,0 0.41,0 0.92,-0.1 1.33,-0.1 h 0.1 c 2.25,3.99 4.5,7.98 6.76,11.97 9,20.57 19.03,40.53 30.59,59.77 2.87,4.7 5.73,9.41 8.7,14.02 6.14,9.62 12.59,19.03 19.24,28.14 1.54,1.94 3.07,3.99 4.71,5.93 1.64,1.95 3.27,3.99 4.91,5.94 3.07,3.58 6.14,7.16 9.21,10.74 11.46,12.9 23.54,25.18 36.53,36.54 18.52,16.17 38.89,30.19 61.1,41.03 12.28,5.94 25.17,10.85 38.37,14.43 10.64,2.87 21.39,4.91 32.34,6.04 2.45,0.31 4.91,0.41 7.47,0.61 22.1,1.54 44.51,-0.51 66.11,-5.52 11.97,-2.87 23.74,-6.55 35.1,-11.46 2.66,-1.13 5.32,-2.36 7.88,-3.59 3.78,3.48 6.85,7.58 9.82,11.87 1.84,2.67 3.17,5.53 4.71,8.4 3.27,6.14 5.62,12.69 7.36,19.54 1.85,6.96 1.85,13.92 1.95,20.98 0.1,6.04 0.82,11.87 3.48,17.29 3.68,7.47 8.9,13.31 17.09,16.07 5.73,1.94 11.56,1.54 17.29,0.31 9.62,-2.05 17.5,-7.06 22.72,-15.76 5.32,-9.11 6.65,-18.93 5.73,-29.17 -1.43,-15.45 -7.78,-28.96 -16.88,-41.24 -6.66,-9 -15.25,-15.76 -24.56,-21.69 -3.89,-2.46 -8.09,-4.4 -12.49,-6.04 -1.23,-0.41 -2.35,-0.92 -3.58,-1.33 2.05,-1.64 4.09,-3.38 6.04,-5.12 2.35,-2.04 4.6,-4.09 6.75,-6.24 2.25,-2.15 4.4,-4.19 6.75,-6.14 2.36,-1.94 4.81,-3.68 7.37,-5.32 0.62,-0.41 1.23,-0.61 2.05,-1.23 0.31,-0.3 0.72,-0.61 0.92,-1.02 0.21,-0.31 0.41,-0.72 0.61,-1.13 0.72,-1.53 0.82,-3.37 0.31,-5.01 -0.2,-0.82 -0.61,-1.54 -1.12,-2.25 -0.52,-0.72 -1.13,-1.33 -1.95,-1.74 -1.53,-0.92 -3.38,-0.92 -5.01,-0.62 -1.64,0.31 -3.28,1.33 -4.1,2.87 -0.41,0.72 -0.71,1.53 -1.02,2.25 l -3.27,11.26 c -0.62,0.41 -1.13,0.82 -1.74,1.33 -0.62,0.51 -1.23,1.02 -1.85,1.53 l -1.74,1.44 c -2.35,1.94 -4.7,3.78 -7.06,5.62 -4.81,3.59 -9.62,7.06 -14.63,10.13 -5.01,3.18 -10.13,6.04 -15.35,8.7 -5.22,2.66 -10.64,4.91 -16.17,6.96 -5.52,2.05 -11.05,3.89 -16.78,5.43 -5.63,1.63 -11.36,2.96 -17.19,4.09 -5.84,1.12 -11.57,2.05 -17.4,2.66 -3.89,0.41 -7.78,0.82 -11.77,1.12 -8.08,0.52 -17.8,0.72 -28.55,0 -18.01,-1.22 -33.77,-4.6 -46.46,-8.39 -10.85,-3.27 -21.49,-7.47 -31.72,-12.48 -5.12,-2.46 -10.13,-5.12 -15.04,-7.88 -7.68,-4.61 -14.33,-9.21 -21.29,-14.23 -10.44,-7.36 -28.76,-20.36 -48.1,-40.93 -12.17,-12.99 -21.28,-25.17 -29.16,-37.35 -12.49,-20.36 -25.07,-42.67 -35.1,-62.42 -3.07,-6.35 -5.53,-11.77 -7.37,-15.86 -5.63,-12.49 -10.03,-23.23 -13.2,-31.42 2.97,-2.66 5.53,-5.42 7.78,-8.6 5.63,-8.08 9,-17.19 12.28,-26.19 4.5,-12.18 7.98,-24.67 13.61,-36.43 2.96,-6.35 6.44,-12.49 11.77,-17.3 3.47,-3.27 7.57,-5.22 12.58,-4.6 1.64,0.2 3.07,0.81 4.61,1.33 3.17,1.02 6.55,-0.52 7.67,-3.48 1.13,-2.97 -0.2,-6.04 -3.37,-7.37 -1.64,-0.72 -3.48,-0.92 -5.33,-0.82 -6.55,0.31 -12.17,3.07 -17.09,7.16 -7.47,6.14 -12.68,14.13 -16.98,22.62 -4.51,8.8 -7.68,18.21 -11.57,27.32 -4.6,11.05 -9.51,21.9 -16.68,31.62 -6.03,8.19 -14.02,12.49 -24.25,12.18 -5.01,-0.1 -9.82,-1.13 -14.22,-3.07 -0.11,-0.31 -0.11,-0.41 -0.11,-0.51 0,-19.65 -0.1,-39.4 0.11,-59.05 0.1,-9.82 7.36,-17.09 17.09,-18.21 0.61,-0.1 1.43,0.2 1.22,-0.92 -15.14,0 -28.14,0 -42.46,0 -3.89,0 -7.88,0 -11.98,0 h -1.74 -0.1 -1.74 c -10.85,0.61 -17.29,10.95 -14.63,18.83 3.27,9.82 17.29,10.33 19.65,1.94 z m 455.07,269.03 c 1.33,0.52 2.56,0.92 3.79,1.44 4.4,1.63 8.18,3.37 11.46,5.52 10.33,6.65 17.7,13.1 23.23,20.47 9.51,12.79 14.73,25.48 15.86,38.68 0.92,10.34 -0.72,18.83 -5.02,26.1 -4.19,7.06 -10.54,11.46 -19.34,13.4 -2.86,0.62 -5.32,0.92 -7.57,0.92 -2.56,0 -4.81,-0.3 -6.96,-1.12 -6.14,-2.05 -10.64,-6.35 -14.12,-13.41 -1.94,-3.99 -2.86,-8.59 -2.97,-15.14 v -1.03 c -0.1,-6.85 -0.2,-14.02 -2.04,-21.18 -2.05,-7.78 -4.61,-14.53 -7.78,-20.57 -0.31,-0.61 -0.61,-1.23 -0.92,-1.74 -1.23,-2.35 -2.46,-4.81 -4.1,-7.06 -2.66,-3.89 -5.62,-7.88 -9.21,-11.36 2.36,-1.23 4.71,-2.56 7.07,-3.99 3.99,-2.35 7.88,-4.91 11.66,-7.57 0.21,-0.21 0.51,-0.31 0.72,-0.51 1.23,-0.93 2.45,-1.85 3.68,-2.66 z" fill="#14757a" fill-rule="evenodd" opacity="1" stroke="none" id="path1479" inkscape:label="K and tongue" style="display:inline;fill:#ffffff;fill-opacity:1" />
<path d="m 1409.25,1346.45 c 0,0 -12.57,7.81 -29.59,-1.19 0,0 13.13,14.18 29.59,1.19 z" fill="#14757a" fill-rule="evenodd" opacity="1" stroke="#14757a" stroke-linecap="round" stroke-linejoin="round" stroke-width="2.01817" id="path1481" inkscape:label="eyelid lower" style="fill:#ffffff;fill-opacity:1;stroke:#ffffff;stroke-opacity:1" />


<path id="path2390" style="clip-rule:evenodd;display:none;fill:#ffffff;fill-opacity:1;fill-rule:nonzero;stroke-linecap:round;stroke-linejoin:round" inkscape:label="pupil without light speckles" d="m 1395.0099,1320.5206 c -1.1416,0 -2.2257,0.3514 -3.2051,0.9805 1.3277,0.8315 2.2344,2.5198 2.2344,4.4687 0,2.78 -1.8296,5.0293 -4.0996,5.0293 -1.0246,0 -1.9601,-0.4638 -2.6797,-1.2285 -0.091,0.6931 -0.1406,1.4073 -0.1406,2.1387 0,6.3 3.5306,11.4004 7.8906,11.4004 1.1851,0 2.309,-0.3775 3.3184,-1.0527 -0.088,0.01 -0.1773,0.014 -0.2676,0.014 -1.55,0 -2.8106,-1.1808 -2.8106,-2.6308 0,-1.45 1.2606,-2.6289 2.8106,-2.6289 1.5224,0 2.7609,1.1382 2.8047,2.5527 1.2711,-2.0228 2.0449,-4.707 2.0449,-7.6543 0,-6.29 -3.5404,-11.3887 -7.9004,-11.3887 z" /><path d="m 1416.06,1328.07 c 0,0 -4.84,-8.27 -7.39,-10.66 0,0 -2.15,-2.65 -7.72,-4.9 -5.25,-2.12 -12.36,-0.15 -12.36,-0.15 l -5.11,1.98 -4.62,1.95 c -5.38,2.21 -5.62,2.36 -8.56,2.93 -2.09,0.41 5.8,2.05 5.8,2.05 l 4.7,-1.5 c 0,0 3.85,-1.23 4.77,-1.43 0,0 3.62,-1.14 6.67,-1.4 2.39,-0.21 4.41,0 5.03,0.07 1.36,0.16 3.82,0.87 4.41,1.06 0.6,0.2 2.58,0.72 5.14,2.68 0,0 3.28,2.51 3.93,3.32 0.64,0.8 4.19,4.67 5.31,4 z" fill="#14757a" fill-rule="evenodd" opacity="1" stroke="#14757a" stroke-linecap="round" stroke-linejoin="round" stroke-width="2.01817" id="path1487" inkscape:label="eyelid upper" style="fill:#ffffff;fill-opacity:1;stroke:#ffffff;stroke-opacity:1" />
<path d="m 1516.27,1336.2 c 7.83,-3.74 18.82,-8.46 32.24,-5.46 4.04,0.91 9.25,1.28 6.55,0.15 -5.59,-2.33 -9.22,-3.74 -13.49,-4.19 -5.06,-0.52 -10.99,0.37 -21.95,3.85 -5.76,1.83 -0.27,-5.89 2.09,-7.87 2.36,-1.99 5.99,-2.97 8.96,-3.2 2.1,-0.16 1.33,-0.5 -1.24,-0.65 -4,-0.22 -11.97,1.03 -17.37,11.92 -4.04,8.13 -3.39,7.26 -2.36,7.69 1.7,0.71 2.3,-0.2 6.57,-2.24 z" fill="#14757a" fill-rule="evenodd" opacity="1" stroke="#14757a" stroke-linecap="round" stroke-linejoin="round" stroke-width="2.01817" id="path1489" inkscape:label="wink" style="fill:#ffffff;fill-opacity:1;stroke:#ffffff;stroke-opacity:1" /><path d="m 1387.12,1331.91 c 0,-6.29 3.53,-11.39 7.89,-11.39 4.36,0 7.9,5.1 7.9,11.39 0,6.3 -3.54,11.4 -7.9,11.4 -4.36,0 -7.89,-5.1 -7.89,-11.4 z" fill="#14757a" fill-rule="evenodd" opacity="1" stroke="none" id="path1475" style="clip-rule:evenodd;display:inline;fill-rule:nonzero;stroke-linecap:round;stroke-linejoin:round" inkscape:label="pupil" /><path d="m 1385.84,1325.97 c 0,-2.77 1.84,-5.02 4.1,-5.02 2.27,0 4.1,2.25 4.1,5.02 0,2.78 -1.83,5.03 -4.1,5.03 -2.26,0 -4.1,-2.25 -4.1,-5.03 z" fill="#ffffff" fill-rule="evenodd" opacity="1" stroke="none" id="path1483" style="clip-rule:evenodd;display:inline;fill-rule:nonzero;stroke-linecap:round;stroke-linejoin:round" inkscape:label="light speckle top left" /><path d="m 1395.25,1339.64 c 0,-1.45 1.26,-2.63 2.81,-2.63 1.55,0 2.81,1.18 2.81,2.63 0,1.45 -1.26,2.63 -2.81,2.63 -1.55,0 -2.81,-1.18 -2.81,-2.63 z" fill="#ffffff" fill-rule="evenodd" opacity="1" stroke="none" id="path1485" inkscape:label="light speckle bottom right" style="clip-rule:evenodd;display:inline;fill-rule:nonzero;stroke-linecap:round;stroke-linejoin:round" />
</g>
</g>
</g>
</svg>
