<?xml version="1.0" encoding="UTF-8" standalone="no"?>
<!-- Created with Inkscape (http://www.inkscape.org/) -->

<svg width="115.3862mm" height="57.80397mm" viewBox="0 0 115.3862 57.803972" version="1.1" id="svg3286" inkscape:version="1.2.2 (732a01da63, 2022-12-09)" sodipodi:docname="frame_corner.svg" xmlns:inkscape="http://www.inkscape.org/namespaces/inkscape" xmlns:sodipodi="http://sodipodi.sourceforge.net/DTD/sodipodi-0.dtd" xmlns="http://www.w3.org/2000/svg" xmlns:svg="http://www.w3.org/2000/svg">
  <sodipodi:namedview id="namedview3288" pagecolor="#ffffff" bordercolor="#666666" borderopacity="1.0" inkscape:showpageshadow="2" inkscape:pageopacity="0.0" inkscape:pagecheckerboard="0" inkscape:deskcolor="#d1d1d1" inkscape:document-units="mm" showgrid="false" inkscape:zoom="1.6819304" inkscape:cx="210.76972" inkscape:cy="218.79621" inkscape:window-width="2560" inkscape:window-height="1560" inkscape:window-x="-12" inkscape:window-y="-12" inkscape:window-maximized="1" inkscape:current-layer="layer1" />
  <defs id="defs3283" />
  <g inkscape:label="Layer 1" inkscape:groupmode="layer" id="layer1" transform="translate(-35.60673,-78.992156)">
    <g id="g566" inkscape:label="Big frame" style="clip-rule:evenodd;display:inline;fill:#2a5c5d;fill-opacity:1;fill-rule:nonzero;stroke-width:3.62616;stroke-linecap:round;stroke-linejoin:round;stroke-miterlimit:10" transform="matrix(0.05513888,0,0,0.05513888,32.162261,77.229997)">
      <g id="g29598" inkscape:label="Frame elegant" style="display:inline;fill:#2a5c5d;fill-opacity:1">
        <rect style="display:none;fill:#2a5c5d;fill-opacity:1;stroke-width:5.45894;stroke-linecap:round;stroke-linejoin:round;paint-order:stroke fill markers" id="rect554" width="7.5625901" height="1501.2686" x="2660.2185" y="1293.6091" inkscape:label="vert top right" />
        <rect style="display:none;fill:#2a5c5d;fill-opacity:1;stroke-width:5.45896;stroke-linecap:round;stroke-linejoin:round;paint-order:stroke fill markers" id="rect558" width="452.52478" height="6.5460343" x="196.22214" y="3752.4548" ry="0" inkscape:label="horiz bottom left" />
        <path style="display:none;fill:#2a5c5d;fill-opacity:1;stroke-width:2.74026" d="m 2660.2086,2766.4718 v 6.8555 0 295.8432 c -3.48,0.51 -7.3704,1.4305 -11.2604,2.5605 -5.94,1.94 -11.9709,4.5992 -17.6009,8.0792 -11.26,7.06 -20.8792,17.6006 -27.3192,30.2906 -5.53,10.65 -9.11,22.5205 -10.65,35.1005 -3.89,4.92 -6.8501,10.6495 -8.4901,16.7895 -1.74,6.65 -1.9499,13.4997 -1.1299,20.2597 0.82,6.75 2.7696,13.3007 5.1196,19.5407 4.81,12.59 11.6701,24.3602 19.0301,35.4102 7.37,11.05 15.3503,21.4902 22.9303,31.5202 7.67,10.03 14.7299,19.8493 19.2399,30.1893 3.68,8.08 5.5194,16.5807 5.1094,24.3507 -8.8,-4.09 -18.519,-6.6511 -28.339,-6.8511 -10.85,-0.21 -21.9008,2.151 -31.1108,7.981 -4.51,2.97 -8.5995,6.7496 -11.0595,11.7696 -1.12,2.45 -1.8402,5.2192 -1.7402,8.0792 0.11,2.87 1.2305,5.631 2.6705,7.981 l 1.0199,1.5392 1.3294,1.6405 c 0.92,1.12 1.9399,1.9399 2.9699,2.8599 2.15,1.64 4.5009,3.1693 7.0609,4.2993 5.01,2.25 10.4391,3.2708 15.8591,3.3808 21.59,0.3 41.961,-11.8705 51.061,-29.3705 0,-0.11 0.11,-0.1099 0.11,-0.2099 0.71,0.51 1.3296,1.0308 2.0396,1.5408 0.92,0.71 1.9502,1.529 2.8702,2.449 1.84,2.15 3.8896,4.811 5.9296,8.091 3.38,5.22 6.8597,12.0693 8.7997,20.4593 2.05,8.2898 2.3608,18.1205 0.4108,28.4505 -1.94,10.3398 -6.3404,21.2893 -12.0704,32.0293 -5.84,10.75 -13.8203,21.2906 -23.9501,30.2906 -3.78,3.28 -7.7805,6.3493 -12.1805,9.1093 -3.78,-3.58 -8.279,-6.6493 -12.989,-8.9993 -7.37,-3.59 -15.4499,-5.7398 -24.0499,-5.9398 -4.3,-0.1 -8.7008,0.4098 -13.0008,1.9398 -2.15,0.82 -4.2892,1.9492 -6.2392,3.5892 -1.94,1.63 -3.4808,3.7808 -4.3008,6.0308 -0.41,1.13 -0.7102,2.3591 -0.8202,3.4791 0,0.31 -0.1,0.62 -0.1,0.92 v 1.0301 c 0,0.51 -2e-4,0.8207 0.1,1.4307 0.21,1.33 0.4102,2.4603 0.8202,3.5803 0.41,1.13 1.0303,2.2495 1.7403,3.2795 2.97,3.99 7.4699,6.1405 11.6699,7.2605 8.4898,2.15 16.7807,1.0297 24.4607,-0.8203 6.24,-1.63 12.1692,-3.9896 17.6992,-6.8496 0.51,0.61 1.1305,1.3297 1.5305,2.0397 1.74,2.56 3.2793,5.1197 4.2993,7.9897 0.11,0.2 0.2098,0.5102 0.2098,0.7102 -9.8298,9.21 -19.8596,18.4194 -28.9596,29.0594 -6.35,7.47 -11.9792,15.87 -16.8892,24.16 -4.91,8.39 -9.2112,17.08 -12.6912,25.89 -7.06,17.6998 -11.2494,36.221 -10.9494,54.741 0.11,2.36 0.2094,4.7094 0.4094,7.0594 0.31,2.15 0.5103,4.3003 0.8203,6.5503 l 0.1,0.4094 c 0,0.11 0.11,0.7207 0.11,0.6207 l 0.201,0.8202 0.4094,1.7388 c 0.2,1.12 0.5103,2.3503 0.8203,3.4703 0.61,2.26 1.4294,4.5103 2.2494,6.6603 2.76,6.75 6.4509,13.1005 10.9509,18.7205 -1.02,-0.41 -2.051,-0.821 -3.171,-1.121 -2.36,-0.72 -4.7094,-1.5399 -7.1694,-2.0499 -1.22,-0.31 -2.4502,-0.6088 -3.6802,-0.8188 l -1.84,-0.3008 -0.9201,-0.2098 c 0,0 -0.6204,-0.1 -0.7204,-0.1 h -0.4094 c -2.35,-0.31 -4.5997,-0.5103 -6.9597,-0.8203 -2.56,-0.1 -5.1098,-0.1996 -7.6698,-0.3096 -19.96,-0.3 -39.8111,3.6892 -58.7411,10.2392 -9.52,3.27 -18.73,7.2609 -27.73,11.8709 -8.91,4.6 -17.91,9.8193 -25.89,15.7593 -11.3598,8.49 -21.2894,17.8996 -31.2194,27.0096 -0.2,-0.1 -0.5101,-0.1 -0.7101,-0.1996 -2.97,-0.92 -5.8404,-2.3597 -8.5004,-3.9897 -0.71,-0.52 -1.4294,-0.9195 -2.1394,-1.4395 3.07,-5.11 5.6202,-10.641 7.3602,-16.471 2.05,-7.17 3.1803,-14.8403 0.8203,-22.8203 -1.12,-3.89 -3.4814,-8.0896 -7.7814,-10.8496 -1.02,-0.61 -2.2488,-1.229 -3.4688,-1.639 -1.23,-0.41 -2.46,-0.6102 -3.89,-0.8202 -0.72,-0.1 -1.0307,-0.1 -1.5407,-0.1 h -1.1196 c -0.31,0 -0.62,-2e-4 -0.92,0.1 -1.23,0.11 -2.5602,0.409 -3.7902,0.719 -2.46,0.82 -4.8102,2.2512 -6.5502,3.9912 -1.74,1.74 -2.9702,3.7897 -3.7902,5.8297 -1.74,4.1 -2.1496,8.1891 -2.0396,12.1791 0.2,7.98 2.5502,15.561 6.4402,22.4108 2.56,4.4 5.7299,8.5991 9.6199,12.1791 -2.96,4.09 -6.2397,7.8802 -9.7197,11.3602 -9.62,9.52 -20.9802,16.8911 -32.4402,22.3111 -11.56,5.42 -23.2301,9.5188 -34.3801,11.3588 -11.16,1.84 -21.5904,1.5306 -30.5004,-0.4094 -8.9,-1.84 -16.2702,-5.1208 -21.9002,-8.1908 -3.48,-1.94 -6.34,-3.8887 -8.7,-5.5187 -0.92,-0.93 -1.8402,-1.8503 -2.5502,-2.7703 -0.62,-0.61 -1.129,-1.2301 -1.639,-1.8401 0.1,0 0.1,-0.1 0.1995,-0.1 18.83,-8.6 31.9302,-27.5304 31.5202,-47.6904 -0.1,-5.01 -1.1203,-10.1293 -3.5803,-14.7293 -1.13,-2.36 -2.7602,-4.5103 -4.6002,-6.5503 -1.03,-0.9298 -1.8497,-1.9503 -3.0697,-2.7703 l -1.7403,-1.3294 -1.639,-0.9201 c -2.56,-1.43 -5.4301,-2.4505 -8.4901,-2.5605 -3.07,-0.1 -6.0399,0.5105 -8.6999,1.6405 -5.32,2.25 -9.4199,6.0389 -12.5899,10.2289 -6.14,8.6 -8.8001,18.9412 -8.4901,29.0712 0.3,9.21 2.9602,18.2093 7.3602,26.3991 -8.39,0.41 -17.4907,-1.3302 -26.1907,-4.7102 -11.06,-4.19 -21.6005,-10.8502 -32.3405,-18.0102 -10.75,-7.16 -21.8996,-14.5296 -33.7696,-21.3896 -11.87,-6.85 -24.4594,-13.1992 -37.9692,-17.6992 -6.75,-2.25 -13.81,-3.99 -20.97,-4.81 -7.17,-0.82 -14.6407,-0.6102 -21.7007,1.0198 -6.5498,1.44 -12.6902,4.2997 -18.0102,7.8797 -13.51,1.44 -26.2996,4.8095 -37.6596,9.9295 -13.51,6.04 -24.8603,14.9406 -32.4403,25.4806 -3.78,5.22 -6.6499,10.8498 -8.6999,16.3698 -1.53,4.61 -2.6607,9.3195 -3.2707,13.8195 H 620.29676 v 6.5503 H 1956.7731 l -0.1012,1.9398 v 0.5107 0.2098 0.5092 l 0.1012,0.92 c 0.1,1.23 0.1996,2.4601 0.1996,3.6801 0.21,1.33 0.509,2.67 0.719,4 1.23,5.11 3.1712,9.7212 5.8312,13.6112 5.12,7.98 12.4899,13.2 19.3397,16.27 6.96,3.07 13.7204,3.7789 19.0404,3.5789 2.66,-0.21 5.0097,-0.4101 6.9597,-0.9201 1.94,-0.41 3.5799,-0.8194 4.8099,-1.3294 2.55,-0.92 3.7799,-1.4395 3.7799,-1.4395 1.33,-0.51 2.0493,-1.9409 1.5393,-3.1709 -0.51,-1.33 -2.0491,-1.939 -3.4791,-1.529 l -0.4109,0.1 c 0,0 -1.1293,0.4098 -3.3793,1.1298 -1.12,0.4 -2.5607,0.7099 -4.1907,1.0199 -1.64,0.41 -3.6899,0.5104 -5.9399,0.6104 -4.5,0 -10.1289,-0.7106 -15.9589,-3.4806 -5.73,-2.76 -11.8707,-7.3601 -15.9707,-14.2201 -2.15,-3.28 -3.6801,-7.3702 -4.6001,-11.3602 -0.21,-1.02 -0.4092,-1.9397 -0.5092,-3.0697 -0.11,-1.23 -0.1113,-2.4602 -0.2113,-3.6802 v -0.92 -0.2098 -0.4094 l 0.1013,-1.7403 c 0.11,-1.23 0.1096,-2.4503 0.3096,-3.5803 0.61,-4.91 1.7391,-9.8194 3.4791,-14.8394 1.94,-4.91 4.5009,-9.7201 7.9809,-14.3301 6.86,-9.1 17.0905,-16.8809 29.3705,-22.4109 6.96,-3.07 14.6293,-5.4194 22.6193,-7.0594 -1.33,1.95 -2.4593,3.9894 -3.3793,6.1394 -2.56,6.14 -3.3804,12.7903 -2.6604,19.0403 0.72,6.24 2.9699,12.3796 6.7499,17.3896 3.79,5.02 9.4199,8.8002 15.3499,10.4402 2.97,0.92 6.0399,1.1309 8.7997,1.3309 3.07,0.21 5.84,-8e-4 8.7,-0.4108 2.87,-0.51 5.5309,-1.4303 7.9809,-2.6603 2.46,-1.33 4.5095,-3.0698 6.2495,-4.9098 1.74,-1.84 2.9597,-3.9896 3.9897,-6.0396 1.02,-2.15 1.6297,-4.0905 2.1497,-6.3405 1.02,-4.3 0,-8.6994 -1.8489,-11.9794 -1.84,-3.37 -4.6003,-5.8303 -7.4703,-7.4703 -2.86,-1.63 -5.9301,-2.3494 -8.4901,-2.1394 -2.66,0.1 -4.8106,1.0198 -6.2406,1.9398 -2.05,1.33 -3.0691,2.6595 -3.4791,3.1695 0,0 0.1,-2e-4 0.1,0.1 l 0.6193,1.0301 c 0.1,0.1 1.0201,-1.4402 3.6801,-2.8702 1.33,-0.71 3.1706,-1.3296 5.3206,-1.2296 2.15,0 4.6097,0.8195 6.9597,2.3595 2.25,1.53 4.4995,3.78 5.9295,6.65 1.44,2.86 2.0501,6.341 1.0301,9.821 -1.03,3.59 -2.7702,7.3702 -5.6302,10.4402 -1.43,1.54 -3.1696,2.87 -5.1196,3.89 -1.94,1.02 -4.1903,1.6399 -6.5503,2.0499 -2.35,0.3 -4.9102,0.4095 -7.3602,0.1995 -2.77,-0.2 -5.3287,-0.5094 -7.6787,-1.3294 -4.91,-1.53 -9.4113,-4.4999 -12.5913,-8.6999 -6.44,-8.39 -7.8791,-20.98 -3.3691,-31.62 1.12,-2.66 2.6604,-5.2205 4.5004,-7.3705 0.61,-0.71 1.2301,-1.3296 1.8401,-2.0396 3.58,-0.51 7.2691,-0.8201 11.0491,-1.0301 15.05,-0.71 31.1098,1.0294 46.2598,6.2494 7.47,2.86 15.1406,5.9306 22.5106,10.0206 1.84,1.03 3.7903,1.8499 5.6303,2.9699 1.84,1.03 3.679,2.1495 5.529,3.1695 3.68,2.15 7.4703,4.3003 11.2501,6.6603 3.79,2.25 7.5705,4.5996 11.2605,6.8496 3.68,2.46 7.4705,4.9107 11.2605,7.2707 7.57,4.91 15.4492,10.0289 24.3492,14.1189 4.4,2.05 9.0108,3.791 13.9208,5.011 2.45,0.72 4.9088,1.0293 7.4688,1.5393 2.56,0.31 5.3213,0.6104 7.6713,0.6104 5.12,0.21 10.2388,-0.1996 15.2488,-1.1196 2.76,-0.51 5.5305,-1.2297 8.2905,-2.1497 0.92,1.23 1.8399,2.3491 2.8599,3.4791 1.74,2.05 3.3794,3.6802 5.3294,5.6302 2.04,1.74 3.9908,3.5794 6.0308,5.2194 8.6,6.54 19.0399,10.8407 29.7799,12.8907 10.75,2.05 21.8,2.0503 32.54,0.8203 10.75,-1.23 21.1907,-3.6899 31.3207,-6.8599 2.56,-0.82 5.0086,-1.6405 7.5686,-2.5605 2.56,-0.92 5.0205,-1.8401 7.3705,-2.7601 l 3.5803,-1.4292 3.6801,-1.6405 3.6904,-1.6405 3.5789,-1.8401 c 9.42,-4.81 18.2208,-10.639 26.3008,-16.989 3.79,-2.96 7.4694,-5.9307 10.9494,-9.0007 1.02,0.1 1.9399,0.3108 2.9699,0.4108 7.57,0.92 15.5499,0.8187 23.0199,-1.1313 7.4698,-1.94 13.9212,-5.4191 19.4512,-9.2091 11.15,-7.57 19.9492,-15.8597 28.2392,-23.2297 4.09,-3.78 8.0794,-7.371 11.8694,-10.741 3.68,-3.48 7.1612,-6.6502 10.6412,-9.5202 3.58,-3.07 7.1701,-5.6298 10.6501,-7.6698 10.74,-2.36 21.5889,-3.6892 32.2289,-3.5892 2.15,0.11 4.3005,0.1099 6.4505,0.2099 2.35,0.2 4.6996,0.509 6.9596,0.719 h 0.4109 0.1 l 0.8202,0.1012 1.529,0.2994 c 1.02,0.21 2.0512,0.4106 3.0712,0.6206 2.05,0.41 4.0894,1.0191 6.1394,1.6391 7.98,2.66 15.3502,6.651 21.9002,11.661 13,9.93 22.41,23.44 26.81,37.5598 2.15,7.06 2.9701,14.3203 1.8401,20.9803 -0.2,1.63 -0.7111,3.3699 -1.1211,4.8099 -0.31,0.71 -0.5088,1.4297 -0.8188,2.1497 l -1.2311,2.5503 -1.2296,1.9501 c -0.41,0.71 -0.9192,1.4296 -1.4292,2.0396 -0.92,1.44 -2.1508,2.6699 -3.2708,3.8899 -4.71,4.81 -10.6502,8.5 -17.0902,10.54 -3.18,1.03 -6.4498,1.5404 -9.7198,1.8504 -3.2798,0.2 -6.5501,-9e-4 -9.5201,-0.5209 -0.82,-0.2 -1.7391,-0.409 -2.5591,-0.609 l -1.3309,-0.3111 -0.92,-0.2993 c -0.72,-0.21 -1.4297,-0.4105 -2.1497,-0.7205 l -2.0499,-0.92 c -2.66,-1.33 -5.2205,-2.9698 -7.3705,-4.9098 -2.04,-1.95 -3.8791,-4.2002 -5.3191,-6.5502 -1.33,-2.36 -2.4512,-4.9103 -3.0712,-7.4703 -0.61,-2.56 -0.9187,-5.2199 -0.7087,-7.7799 0,-1.33 0.2994,-2.4589 0.4094,-3.5789 0.1,-0.62 0.3006,-1.3314 0.5106,-2.0514 l 0.3096,-1.0198 0.1,-0.2098 v -0.1 l 0.1995,-0.4094 c 1.64,-4.6 4.71,-8.4904 8.7,-11.1504 3.89,-2.66 8.4907,-4.1008 12.8907,-4.3008 1.13,-0.1 2.2595,0 3.2795,0 1.12,0.1 1.9397,0.2009 3.0697,0.4109 l 1.7403,0.4094 c 0.31,0 0.9209,0.3008 1.3309,0.4108 0.92,0.3 1.8388,0.7096 2.6588,1.1196 6.96,3.58 10.231,10.6501 9.821,16.3801 0,0.71 -0.101,1.3296 -0.201,2.0396 -0.1,0.62 -0.4092,1.5409 -0.5092,2.2509 -0.1,0.41 -0.5105,1.129 -0.7205,1.639 -0.2,0.62 -0.41,1.1305 -0.92,1.6405 -0.31,0.51 -0.7198,1.0192 -1.0198,1.4292 -0.31,0.51 -0.8197,0.8211 -1.2297,1.2311 -0.41,0.41 -0.8196,0.8199 -1.2296,1.1299 -0.51,0.3 -0.9209,0.61 -1.3309,0.81 -0.82,0.62 -1.8403,0.9196 -2.6603,1.2296 -0.82,0.41 -1.7393,0.5105 -2.4593,0.7205 -0.41,0.1 -0.8096,0.1996 -1.1196,0.1996 -0.31,0.11 -0.72,0 -1.03,0 -0.61,0 -1.2201,0 -1.7301,0.11 -1.13,-0.11 -2.1503,-0.3094 -2.7703,-0.4094 -0.61,-0.11 -0.92,-0.2113 -0.92,-0.2113 -1.23,-0.2 -2.3504,0.5105 -2.6604,1.6405 -0.31,1.12 0.5103,2.2505 1.7403,2.4505 0,0 0.3101,0.1098 0.9201,0.2098 0.62,0.1 1.5401,0.4092 2.8701,0.5092 3.07,0.21 7.5702,0.1009 12.38,-2.5591 0.61,-0.3 1.2301,-0.7096 1.8401,-1.1196 0.61,-0.41 1.1303,-0.9209 1.7403,-1.4409 0.51,-0.51 1.2288,-1.0202 1.7388,-1.6302 0.51,-0.62 0.9207,-1.2301 1.4307,-1.9501 0.51,-0.61 0.9196,-1.4297 1.2296,-2.1497 0.41,-0.82 0.7199,-1.429 1.1299,-2.449 0.2,-0.82 0.5104,-1.441 0.6104,-2.361 0.21,-0.92 0.4094,-1.9399 0.4094,-2.8599 0.31,-3.69 -0.4094,-7.8796 -2.3492,-11.7696 -1.95,-3.89 -5.3298,-7.5708 -9.8298,-10.0308 -8.8,-4.81 -22.1005,-5.0095 -32.3405,1.6405 -5.11,3.27 -9.3098,8.2901 -11.5598,14.2201 l -0.1996,0.5106 c 0,-0.1 -0.11,0.4094 -0.11,0.4094 l -0.1,0.2099 -0.3111,1.0198 c -0.2,0.72 -0.3989,1.3299 -0.6089,2.0499 -0.31,1.64 -0.7205,3.2697 -0.7205,4.9097 -0.3,3.17 5e-4,6.4512 0.7205,9.7212 0.72,3.28 1.9489,6.4502 3.5789,9.5202 1.74,3.07 3.9902,5.8289 6.5502,8.3889 2.66,2.56 5.7306,4.7106 9.2106,6.4504 l 2.6603,1.2297 c 0.92,0.4 1.8389,0.7098 2.7689,1.0198 l 0.7102,0.201 0.3096,0.1101 c -0.1,0 0.5106,0.1 0.5106,0.1995 l 1.3295,0.3097 c 0.92,0.2 1.6403,0.4104 2.6603,0.6104 15.97,3.28 33.4607,-1.8397 45.5407,-13.6097 1.43,-1.53 2.9695,-3.0702 4.0895,-4.7102 0.62,-0.81 1.3301,-1.6303 1.8401,-2.5503 l 0.8202,-1.3294 0.4094,-0.7205 0.2099,-0.3096 c 0,0.1 0.3008,-0.5106 0.3008,-0.5106 l 1.2296,-2.5606 c 0.41,-0.92 0.8197,-2.0397 1.2297,-3.0697 0.72,-2.04 1.2305,-4.0891 1.6405,-6.2391 1.53,-8.39 0.7095,-16.8912 -1.6405,-25.0712 -2.86,-9.83 -7.78,-19.3386 -14.43,-27.8386 4.2,1.74 8.6008,3.1793 13.0008,4.2993 8.6998,2.15 17.9097,2.9707 26.9097,1.5407 2.25,-0.31 4.4001,-0.8207 6.6501,-1.5407 1.13,-0.41 2.3593,-0.7096 3.3793,-1.1196 l 2.7601,-1.1298 c 0.11,0 0.7207,-0.3111 0.6207,-0.3111 l 0.4094,-0.1996 0.7102,-0.4094 1.4394,-0.8202 c 1.02,-0.51 1.8401,-1.1303 2.7601,-1.7403 1.84,-1.12 3.4811,-2.5601 5.1211,-3.8899 12.68,-11.15 18.2095,-27.6296 14.6295,-42.4696 -0.21,-0.81 -0.5105,-1.6305 -0.7205,-2.4505 l -0.2993,-1.2296 c 0,-0.1 -0.2099,-0.5107 -0.2099,-0.5107 l -0.1,-0.3096 -0.3111,-0.6104 c -0.41,-0.82 -0.7096,-1.7391 -1.1196,-2.5591 l -1.3294,-2.4607 c -1.95,-3.17 -4.2012,-6.1399 -6.9612,-8.5899 -2.7698,-2.46 -5.7295,-4.5094 -9.0095,-6.1394 -3.27,-1.54 -6.6506,-2.7708 -10.1306,-3.3808 -3.48,-0.61 -6.9587,-0.9204 -10.4387,-0.6104 -1.63,0 -3.4809,0.4104 -5.2209,0.6104 -0.82,0.2 -1.4294,0.4106 -2.2494,0.5106 l -1.1196,0.3097 -0.3111,0.1 -0.5092,0.1 -0.6207,0.2098 c -6.34,2.04 -11.7599,6.0411 -15.2399,10.8511 -7.27,9.51 -6.9603,21.8893 -1.8503,30.0793 2.66,4.2 6.6598,7.3705 10.7498,9.2105 4.19,1.84 8.6014,2.4595 12.5914,2.2495 1.02,0 2.0397,-0.1994 3.0697,-0.4094 1.02,-0.2 1.7402,-0.4104 2.5502,-0.6104 1.13,-0.31 1.7391,-0.7198 2.6691,-1.0198 0.81,-0.31 1.6307,-0.6199 2.3507,-1.1299 0.72,-0.51 1.4299,-0.9209 2.0499,-1.3309 0.71,-0.41 1.1203,-1.0192 1.7403,-1.5392 0.51,-0.51 1.119,-1.0203 1.529,-1.6303 0.41,-0.62 0.8198,-1.1302 1.1298,-1.7402 2.86,-4.5 2.9601,-8.7001 2.7601,-11.5701 -0.21,-1.22 -0.4092,-2.0403 -0.6192,-2.6603 -0.1,-0.61 -0.201,-0.9186 -0.201,-0.9186 -0.31,-1.12 -1.4289,-1.8402 -2.6589,-1.6302 -1.23,0.2 -2.05,1.329 -1.84,2.449 0,0 0.1,0.31 0.1995,0.92 0.1,0.62 0.3107,1.5406 0.5107,2.5606 0,0.51 0,1.0205 -0.1013,1.6405 v 0.92 c -0.1,0.31 -0.1996,0.7198 -0.3096,1.0198 -0.2,0.72 -0.3002,1.5395 -0.7102,2.3595 -0.41,0.81 -0.6194,1.7405 -1.3294,2.4505 -0.31,0.41 -0.62,0.8196 -0.92,1.2296 -0.31,0.41 -0.8197,0.7199 -1.2297,1.1299 -0.41,0.4 -0.8209,0.8096 -1.3309,1.1196 -0.51,0.31 -1.0192,0.62 -1.5392,0.92 -0.51,0.41 -1.1203,0.6203 -1.7403,0.8203 -0.61,0.21 -1.33,0.5104 -1.84,0.7204 -0.71,0.1 -1.7393,0.4092 -2.3493,0.5092 -0.72,0.1 -1.3311,0.201 -2.1511,0.201 -6.14,0.41 -13.7097,-2.6605 -17.4997,-9.1005 -0.41,-0.82 -0.9196,-1.6405 -1.2296,-2.5605 -0.1,-0.41 -0.4109,-1.0297 -0.4109,-1.2297 l -0.4094,-1.639 c -0.3,-1.12 -0.3006,-1.9413 -0.5106,-2.8613 0,-1.03 -0.1,-2.0497 0,-3.0697 0.21,-4.1 1.7404,-8.3893 4.6104,-12.0793 2.76,-3.68 6.9609,-6.5507 11.8709,-8.0807 l 0.4094,-0.1 c 0.012,-0.01 0.017,-0.01 0.025,-0.015 0.01,0.01 0.025,0.015 0.075,0.015 l 0.3096,-0.11 1.121,-0.1996 c 0.72,-0.21 1.5397,-0.4106 2.1497,-0.5106 1.33,-0.11 2.46,-0.4094 3.89,-0.4094 2.76,-0.21 5.5305,0.1002 8.2905,0.7102 2.76,0.52 5.4195,1.6401 7.9795,2.8701 2.56,1.33 4.9094,3.0696 7.0594,5.0096 2.15,1.95 3.8906,4.2998 5.3206,6.8598 l 1.0301,1.9399 c 0.3,0.62 0.51,1.3299 0.81,2.0499 l 0.3096,0.8202 0.3096,1.2297 c 0.2,0.82 0.4104,1.6307 0.6104,2.3507 0.51,2.66 0.7207,5.8297 0.5107,8.7997 -0.3,3.07 -0.9211,6.1393 -2.0411,9.1093 -2.15,5.93 -6.039,11.4606 -11.259,15.8606 -1.33,1.02 -2.6608,2.1497 -4.1908,3.0697 -0.72,0.41 -1.4397,0.9209 -2.2597,1.3309 l -2.0396,1.1299 -2.7704,1.1196 c -0.81,0.3098 -1.5307,0.5104 -2.3507,0.7204 -1.64,0.41 -3.3795,0.8196 -5.2193,1.1196 -7.16,1.03 -14.9407,0.3098 -22.5107,-1.6302 -15.15,-4.1 -29.5799,-12.9 -40.3199,-24.97 -5.32,-6.0398 -9.6201,-12.9997 -12.4901,-20.3697 -0.61,-1.84 -1.33,-3.7801 -1.73,-5.7301 -0.31,-0.9198 -0.519,-1.9398 -0.719,-2.8598 l -0.3096,-1.441 -0.1013,-0.7087 v -0.1012 -0.4094 c -0.31,-2.15 -0.5088,-4.3003 -0.8188,-6.5503 -0.1,-2.05 -0.201,-3.9896 -0.201,-6.0396 -0.11,-9.93 1.3297,-19.9597 3.8797,-30.0895 2.15,-3.27 4.9209,-6.5508 8.1907,-9.9208 3.07,-3.17 6.5504,-6.4496 10.2304,-9.9296 3.69,-3.48 7.5801,-7.1606 11.5701,-11.0506 7.98,-7.78 16.7799,-15.9594 24.9699,-26.2994 3.99,-5.22 7.7696,-11.15 9.8196,-18.11 2.15,-6.96 2.2496,-14.4296 1.2296,-21.3896 -0.1,-0.92 -0.3094,-1.8401 -0.4094,-2.7601 3.27,-3.38 6.5498,-6.7607 9.7198,-10.2407 6.7598,-7.57 13.0001,-15.7605 18.2201,-24.5605 l 1.9398,-3.2693 1.7403,-3.3793 1.7403,-3.4805 1.5392,-3.3808 c 1.02,-2.14 2.0397,-4.4996 2.9597,-6.8496 1.03,-2.36 1.8503,-4.7095 2.7703,-7.0595 3.37,-9.42 6.0303,-19.2409 7.3603,-29.1709 1.33,-10.03 1.3299,-20.2591 -0.9201,-30.2891 -2.15,-10.03 -6.8492,-19.75 -13.8092,-27.73 -1.84,-1.94 -3.6902,-3.7903 -5.6302,-5.6303 -2.15,-1.84 -3.7911,-3.2697 -6.0411,-4.9097 -1.23,-0.92 -2.4487,-1.8403 -3.6787,-2.6603 0.92,-2.56 1.7395,-5.1199 2.2495,-7.7799 1.02,-4.71 1.4296,-9.5202 1.2296,-14.2202 0,-2.15 -0.4105,-4.7094 -0.7205,-7.1694 -0.51,-2.35 -0.919,-4.7009 -1.639,-6.9509 -1.33,-4.61 -3.2704,-8.9093 -5.4204,-12.9993 -4.3,-8.29 -9.8201,-15.6606 -15.1401,-22.7204 -2.67,-3.48 -5.2197,-6.9603 -7.8797,-10.4403 -2.56,-3.37 -4.9205,-6.9602 -7.3705,-10.4402 -2.46,-3.47 -4.9095,-7.0599 -7.1695,-10.4299 -1.12,-1.74 -2.3503,-3.4794 -3.4703,-5.2194 -1.13,-1.74 -2.1498,-3.4808 -3.1798,-5.2208 -4.3,-6.86 -7.6695,-14.02 -10.7395,-21.08 -5.63,-14.12 -7.4699,-29.0586 -6.6501,-43.1886 0.2,-3.48 0.5096,-6.9504 1.1196,-10.2304 0.72,-0.61 1.4297,-1.2303 2.1497,-1.7403 2.35,-1.7398 5.1209,-3.1707 7.9809,-4.1907 11.46,-4.1 24.8695,-2.7691 33.8695,3.1709 4.51,2.97 7.6806,7.1597 9.3206,11.7697 0.82,2.25 1.1194,4.7007 1.3294,7.1607 0.2,2.3498 0.1004,4.7096 -0.3096,6.9596 -0.41,2.25 -1.1311,4.2994 -2.1511,6.1394 -1.12,1.84 -2.4497,3.3702 -4.0895,4.7102 -3.28,2.66 -7.3693,4.2906 -11.1593,5.3206 -3.78,0.92 -7.47,0.2999 -10.54,-1.0301 -3.07,-1.33 -5.5206,-3.3701 -7.1606,-5.5201 -1.64,-2.15 -2.4593,-4.5105 -2.4593,-6.4505 -0.1,-2.05 0.6194,-3.6798 1.3294,-4.9098 1.54,-2.46 3.1797,-3.3793 3.0697,-3.3793 l -1.1196,-0.6104 v -0.1101 c -0.61,0.41 -1.9508,1.3396 -3.3808,3.2796 -1.02,1.33 -1.9396,3.3798 -2.0396,5.8298 -0.11,2.46 0.6107,5.3209 2.3507,7.9809 1.74,2.67 4.3995,5.2196 7.9795,6.9596 3.58,1.74 8.1907,2.6603 12.8907,1.7403 2.36,-0.51 4.5086,-1.0196 6.7586,-2.0396 2.25,-0.92 4.5003,-2.0504 6.5503,-3.6904 2.0398,-1.64 3.8906,-3.5798 5.3206,-5.8298 1.33,-2.25 2.3498,-4.8103 2.8598,-7.4703 0.52,-2.66 0.6195,-5.3195 0.5195,-8.0895 -0.21,-2.55 -0.5195,-5.4205 -1.4395,-8.1805 -1.74,-5.63 -5.8304,-10.8501 -11.1504,-14.3301 -5.42,-3.58 -11.8695,-5.6305 -18.6295,-6.3405 -6.75,-0.62 -13.8095,0.1005 -20.3595,2.4505 -2.25,0.82 -4.5001,1.8395 -6.6501,3.1695 1.74,-7.47 4.3001,-14.63 7.5701,-21.08 5.83,-11.46 14.2299,-20.9692 24.0499,-27.3192 4.91,-3.1698 10.13,-5.6302 15.35,-7.4702 5.32,-1.64 10.6391,-2.7608 15.8591,-3.2708 1.33,-0.21 2.56,-0.2098 3.89,-0.2098 l 1.9398,-0.1 h 0.5209 0.1996 0.92 c 1.33,0.1 2.66,0.1 3.89,0.1996 1.23,0.11 2.1495,0.4109 3.2795,0.5209 4.29,0.81 8.6902,2.2491 12.1702,4.2891 7.37,3.89 12.3902,9.5205 15.2502,14.9405 2.97,5.43 3.7902,10.6494 3.7902,14.8394 -0.11,2.05 -0.2107,3.9904 -0.6207,5.5304 -0.3,1.53 -0.6096,2.86 -1.1196,3.89 -0.82,2.04 -1.2296,3.1709 -1.2296,3.1709 l -0.1,0.3096 c -0.51,1.22 0.199,2.6595 1.529,3.1695 1.33,0.51 2.9705,-0.099 3.4805,-1.4292 0,0 0.5108,-1.2306 1.5408,-3.5906 0.61,-1.12 1.0192,-2.6604 1.4292,-4.5004 0.61,-1.84 0.8198,-3.989 1.0198,-6.449 0.41,-5.21 -0.2989,-11.5603 -3.5789,-18.0103 -3.27,-6.44 -8.9013,-13.3 -17.4013,-18.11 -4.19,-2.56 -8.9998,-4.4002 -14.5298,-5.5202 -1.43,-0.21 -2.8593,-0.5205 -4.2993,-0.7205 -1.33,-0.1 -2.5497,-0.1 -3.8797,-0.2098 l -1.0301,-0.1 h -0.5106 -0.3096 -0.5107 l -2.1496,0.1 c -1.12,0.11 -2.1493,0.11 -3.2693,0.11 v -301.6787 z m -67.5363,389.8887 c -0.41,13.92 1.6307,28.4509 7.1607,42.5709 6.24,15.3498 15.7589,29.5691 25.6889,43.5891 2.45,3.48 5.01,7.0598 7.6698,10.6398 2.66,3.59 5.4208,6.9602 8.1908,10.4402 5.42,6.86 10.8406,13.8198 14.9406,21.2898 2.04,3.78 3.8893,7.5713 5.1093,11.5613 0.72,1.95 1.1305,4.0996 1.6405,6.0396 0.31,2.05 0.719,3.8892 0.719,6.2392 0.3,4.2 0,8.5011 -0.719,12.6911 -0.31,1.74 -0.7111,3.4794 -1.2311,5.2194 -1.22,-0.72 -2.4501,-1.4299 -3.6801,-2.0499 -0.1,0 -0.1,-0.1 -0.2098,-0.1 0.93,-8.59 -1.0198,-17.9102 -4.7998,-26.7102 -4.51,-10.74 -11.6701,-20.8707 -19.1401,-31.0007 -7.47,-10.14 -15.2494,-20.5688 -22.4094,-31.6288 -7.06,-11.05 -13.6103,-22.6111 -18.1203,-34.7909 -4.4,-12.18 -6.6504,-25.2804 -3.3706,-37.2502 0.61,-2.35 1.5306,-4.5999 2.5606,-6.7499 z m 31.8738,165.3237 c 0.7693,-5e-4 1.5387,0.015 2.3067,0.047 9.61,0.41 19.1302,3.1699 27.6302,7.6699 -2.15,9.32 -7.6811,17.0894 -13.6111,22.4094 -1.44,1.33 -2.9692,2.5606 -4.5092,3.5906 -6.85,3.27 -14.5296,5.1096 -22.1996,5.0096 -4.71,0 -9.4211,-0.8204 -13.6111,-2.6604 -2.15,-0.82 -4.0002,-2.0493 -5.73,-3.3793 -0.72,-0.71 -1.7396,-1.4294 -2.3596,-2.2494 l -1.0198,-1.1211 -1.03,-1.5392 c -1.12,-1.74 -1.8401,-3.5805 -1.8401,-5.5305 -0.1,-1.94 0.4094,-3.8798 1.3294,-5.8298 1.85,-3.78 5.2208,-7.0602 9.1108,-9.5202 7.3566,-4.6185 16.4552,-6.8908 25.5334,-6.8965 z m 32.1864,9.0462 c 0.92,0.52 1.9399,1.1303 2.8599,1.7403 -0.2,0.41 -0.4105,0.8209 -0.6105,1.3309 -2.97,5.84 -7.2699,11.2598 -12.5899,15.5598 0.21,-0.31 0.4107,-0.5105 0.6207,-0.7205 1.43,-1.64 2.8596,-3.4804 4.0896,-5.4204 2.3498,-3.69 4.4002,-7.8801 5.6302,-12.4901 z m 27.1093,26.3008 c 2.77,5.02 4.6102,10.3392 5.6302,15.8592 1.74,9.11 1.5401,18.63 0.1101,27.9398 -1.54,9.31 -4.2001,18.5207 -7.6801,27.4307 -3.48,8.8 -7.7795,17.7004 -12.7895,25.5804 -5.12,7.98 -11.1607,15.4494 -17.8107,22.4094 -1.63,1.64 -3.2698,3.3798 -4.9098,5.0198 -1.0198,-2.26 -2.2501,-4.2992 -3.7901,-6.3492 -0.4,-0.61 -0.9192,-1.2301 -1.4292,-1.8401 4.3,-2.97 8.3892,-6.24 12.0792,-9.62 10.44,-9.7198 18.3199,-20.9806 23.9399,-32.2406 2.87,-5.62 5.2209,-11.249 7.1709,-16.879 1.94,-5.53 3.4793,-11.1513 4.3991,-16.4813 1.94,-10.74 1.33,-20.97 -0.92,-29.6698 -1.03,-4.1 -2.46,-7.7793 -4,-11.1593 z m -85.9971,105.3471 c 0.624,0 1.2533,0.024 1.887,0.063 6.75,0.41 13.5112,2.55 19.3412,5.73 3.07,1.63 5.9288,3.5801 8.3888,5.7301 -4.71,2.15 -9.7193,3.9893 -14.8393,5.1093 -6.86,1.54 -14.2193,2.0498 -20.5693,0.2098 -3.07,-0.92 -5.7309,-2.4591 -7.0609,-4.3991 -0.61,-0.92 -1.0196,-2.251 -1.1196,-3.171 v -1.1298 -0.1 -0.2098 c 0,-0.2 -3e-4,-0.3007 0.1,-0.5107 0.1,-0.61 0.3007,-1.1188 0.5107,-1.7388 0.82,-2.04 2.86,-3.5804 5.73,-4.5004 2.3319,-0.7475 4.9276,-1.0925 7.6317,-1.0829 z m 43.0272,40.072 c 0.3,4.4 0.1,8.7009 -1.0301,12.7909 -1.43,5.63 -4.3997,10.7396 -7.8797,15.6596 -3.48,4.91 -7.4702,9.4107 -11.3602,13.8107 -3.99,4.4 -7.8798,8.5999 -11.5598,12.5899 -3.79,3.99 -7.3696,7.8798 -10.8496,11.5598 -3.37,3.58 -6.65,6.9604 -9.62,10.3404 0.82,-2.25 1.6405,-4.6113 2.5605,-6.8613 6.76,-16.58 15.9699,-32.6396 27.9399,-47.1696 6.45,-7.7798 14.019,-15.1504 21.799,-22.7204 z m -253.1799,175.2899 h 0.4108 0.1908 1.1386 c 1.03,0.11 2.3608,0.4101 3.3808,1.0301 2.15,1.23 3.79,3.6802 4.81,6.5502 1.94,5.83 1.3289,12.6899 -0.3111,19.1299 -1.23,4.81 -3.1702,9.4208 -5.5202,13.9208 -2.36,-2.35 -4.3994,-4.9099 -6.1394,-7.7799 -3.28,-5.52 -5.6294,-11.7601 -6.1394,-18.1101 -0.21,-3.07 0.1,-6.241 1.0198,-8.901 1.02,-2.66 2.66,-4.4991 4.81,-5.3191 0.61,-0.21 1.1301,-0.4109 1.8401,-0.4109 0.21,0 0.3092,0 0.5092,-0.11 z m -316.3788,4.3888 c 9.1038,-0.042 18.4607,1.8423 27.2898,4.6222 13.1,4.2 25.59,10.3392 37.35,16.8892 11.87,6.65 23.0297,13.9102 33.8797,20.8702 10.84,6.96 21.7902,13.6105 33.2502,17.9105 9.42,3.58 19.449,5.3203 28.6588,4.5003 0,0.1 0.1013,0.1 0.1013,0.2099 0.72,1.12 1.4294,2.3491 2.2494,3.4791 -1.84,0.3 -3.6802,0.7098 -5.6302,1.0198 -4.5,0.72 -9.0997,1.0204 -13.6097,0.7204 -2.56,0 -4.5,-0.4104 -6.65,-0.7204 -2.15,-0.51 -4.4003,-0.8193 -6.5503,-1.5393 -4.3,-1.12 -8.4898,-2.86 -12.4798,-4.81 -7.99,-3.88 -15.4603,-8.9005 -22.8203,-13.9105 -3.69,-2.56 -7.3692,-5.1188 -11.1592,-7.5788 -3.78,-2.45 -7.6702,-4.8007 -11.3602,-7.1607 -15.04,-9.31 -30.2902,-18.1099 -46.7602,-24.0499 -15.1498,-5.11 -30.7005,-6.9601 -45.6405,-6.6501 2.35,-1.02 4.8105,-1.7407 7.2605,-2.3507 3.1975,-0.7675 6.4786,-1.2086 9.8048,-1.3749 0.9355,-0.047 1.8741,-0.072 2.8159,-0.076 z m 181.2987,0.022 c 2.05,0 4.0998,0.71 5.9398,1.73 l 1.6405,0.9303 1.2209,0.9201 c 0.82,0.51 1.5395,1.4297 2.3595,2.1497 1.43,1.6298 2.7601,3.3704 3.6801,5.4204 1.95,3.8898 2.8701,8.2896 2.8701,12.6896 0,7.16 -1.9506,14.3304 -5.4306,20.7704 -1.12,1.44 -2.45,2.8697 -3.89,4.1995 -5.83,5.42 -14.0096,10.6397 -24.0396,12.6897 -4.81,-7.98 -7.7808,-16.7902 -8.1908,-25.7902 -0.41,-9.21 1.9405,-18.5197 7.3705,-25.9897 2.76,-3.69 6.1404,-6.8604 10.2304,-8.5004 2.05,-0.82 4.1992,-1.2194 6.2392,-1.2194 z m 252.1498,0.1996 c -3.58,2.56 -7.2591,5.5299 -11.0491,8.6999 -3.89,3.17 -8.0801,6.5506 -12.3801,10.1306 -4.3,3.48 -8.9099,7.1596 -13.5099,10.8496 -4.71,3.68 -9.6208,7.3598 -14.8408,10.6398 -5.22,3.27 -10.8492,6.0405 -16.7792,7.3705 -4.4,1.02 -9.0109,1.23 -13.7109,0.92 8.08,-7.2698 16.0607,-14.3297 24.3507,-20.2597 15.56,-11.16 32.7503,-19.75 50.5503,-26 2.46,-0.82 4.919,-1.6307 7.369,-2.3507 z m -113.5892,48.9201 c 0.62,0.4 1.3299,0.9208 2.0499,1.3308 2.15,1.33 4.3999,2.4489 6.8599,3.4689 -2.05,1.54 -3.7903,3.0706 -5.6303,4.5106 -7.5798,6.24 -15.4599,11.8696 -24.0499,16.5796 -8.4898,4.7 -18.0092,8.6907 -27.4292,11.9707 -9.51,3.27 -19.3405,5.8292 -29.3705,7.1592 -10.02,1.33 -20.1597,1.5402 -29.8797,-0.1 -5.93,-1.02 -11.7704,-2.7594 -17.0902,-5.2194 3.5798,1.43 7.5794,2.7602 11.9794,3.7902 9.21,2.15 20.261,2.66 31.821,0.92 5.73,-0.82 11.7695,-2.2512 17.7095,-4.1012 5.93,-1.84 12.0701,-3.99 18.1101,-6.65 12.0698,-5.32 24.1499,-12.5796 34.5899,-22.4094 3.68,-3.48 7.1601,-7.1602 10.3301,-11.2502 z m -132.9304,4.7997 c -4.6,5.02 -10.3294,9.0111 -16.6794,11.7711 -0.41,0.21 -0.9209,0.4092 -1.3309,0.6192 -0.61,-0.92 -1.23,-1.7403 -1.84,-2.6603 4.91,-1.13 9.4101,-2.9694 13.3001,-5.2194 2.15,-1.23 4.1,-2.5599 5.84,-3.8899 0.2,-0.21 0.5102,-0.4107 0.7102,-0.6207 z" id="path550" inkscape:label="Frame bottom right" />
        <rect style="display:none;fill:#2a5c5d;fill-opacity:1;stroke-width:5.45896;stroke-linecap:round;stroke-linejoin:round;paint-order:stroke fill markers" id="rect556" width="424.4231" height="6.8525391" x="2155.0818" y="85.669167" inkscape:label="horiz top right" transform="skewY(0.0507105)" />
        <rect style="display:none;fill:#2a5c5d;fill-opacity:1;stroke-width:5.45894;stroke-linecap:round;stroke-linejoin:round;paint-order:stroke fill markers" id="rect552" width="7.2691202" height="1501.2773" x="107.93504" y="1051.8729" inkscape:label="vert bottom left" />
        <path style="fill:#2a5c5d;fill-opacity:1;stroke-width:2.74026" d="m 781.59199,31.958562 c -0.5229,0.002 -1.0345,0.0132 -1.5333,0.0323 -2.661,0.205 -5.0132,0.41049 -6.9582,0.92149 -1.94403,0.41 -3.58201,0.81889 -4.81001,1.33089 -2.559,0.921 -3.78723,1.43214 -3.78723,1.43214 -1.33,0.512 -2.04584,1.94588 -1.53486,3.17388 0.512,1.33 2.04758,1.94385 3.48056,1.53485 l 0.4094,-0.10418 c 0,0 1.12539,-0.40799 3.37637,-1.12399 1.126,-0.41 2.55863,-0.71723 4.19667,-1.02421 1.637,-0.409 3.6829,-0.51183 5.9339,-0.61483 4.503,0 10.1308,0.71758 15.9649,3.48056 5.73,2.763 11.8704,7.368519 15.9604,14.224519 2.1498,3.27498 3.6801,7.36779 4.6001,11.35877 0.21,1.023 0.4094,1.94372 0.5194,3.069701 0.1,1.228 0.1011,2.45653 0.2011,3.68453 v 0.92003 0.20396 0.41086 l -0.1,1.73881 c -0.1,1.228 -0.1011,2.45581 -0.3111,3.58181 -0.61,4.91198 -1.7391,9.82388 -3.4791,14.83786 -1.94,4.912 -4.5009,9.722248 -7.9809,14.327228 -6.86,9.10798 -17.0862,16.88489 -29.3662,22.41087 -6.95896,3.07 -14.63282,5.42392 -22.6148,7.0609 1.331,-1.94398 2.45538,-3.9904 3.37638,-6.1394 2.559,-6.13998 3.37778,-12.79251 2.66178,-19.03449 -0.716,-6.242 -2.96823,-12.38195 -6.75423,-17.396928 -3.78598,-5.014 -9.41499,-8.79928 -15.34997,-10.43728 -2.968,-0.921 -6.03818,-1.12589 -8.80118,-1.33089 -3.069,-0.205 -5.83248,3.9e-4 -8.69846,0.40939 -2.865,0.512 -5.5264,1.43231 -7.9824,2.66031 -2.456,1.33 -4.50212,3.0707 -6.24212,4.9127 -1.74,1.842 -2.96673,3.99117 -3.98973,6.03815 -1.023,2.148998 -1.63767,4.092368 -2.14967,6.343368 -1.023,4.29798 -4.7e-4,8.69961 1.84153,11.97359 1.84198,3.377 4.60529,5.83231 7.47029,7.47029 2.86598,1.637 5.9365,2.35367 8.4945,2.14967 2.661,-0.10298 4.81012,-1.02472 6.24212,-1.9457 2.047,-1.33 3.06909,-2.65895 3.47909,-3.17095 0,0 -0.10271,-7.2e-4 -0.10271,-0.10272 l -0.61336,-1.02421 c -0.102,-0.102 -1.02352,1.43274 -3.68452,2.86574 -1.33,0.716 -3.17162,1.33017 -5.32062,1.22817 -2.149,0 -4.60565,-0.81863 -6.95965,-2.35363 -2.251,-1.535 -4.50099,-3.78551 -5.93397,-6.65151 -1.433,-2.86498 -2.04822,-6.34394 -1.02422,-9.82392 1.023,-3.581 2.76377,-7.368748 5.62877,-10.438748 1.433,-1.535 3.17167,-2.86548 5.11665,-3.88848 1.944,-1.024 4.1948,-1.63796 6.5488,-2.04696 2.354,-0.307 4.91304,-0.40796 7.36904,-0.20396 2.763,0.205 5.32027,0.51189 7.67425,1.33089 4.912,1.535 9.41397,4.50248 12.58695,8.69846 6.447,8.390998 7.87983,20.976998 3.37785,31.619978 -1.126,2.661 -2.66131,5.21858 -4.50331,7.36758 -0.614,0.716 -1.22899,1.33142 -1.84299,2.04842 -3.582,0.511 -7.2661,0.81775 -11.0521,1.02275 -15.04296,0.71598 -31.1089,-1.02314 -46.25388,-6.24212 -7.47098,-2.866 -15.14559,-5.93637 -22.51359,-10.02935 -1.842,-1.023 -3.78531,-1.84246 -5.62729,-2.96846 -1.842,-1.023 -3.68405,-2.14795 -5.52605,-3.17095 -3.684,-2.149 -7.47053,-4.29899 -11.25753,-6.65297 -3.786,-2.251 -7.57206,-4.60449 -11.25606,-6.85547 -3.684,-2.456 -7.47153,-4.91233 -11.25753,-7.266328 -7.57298,-4.912 -15.45066,-10.02782 -24.35364,-14.1218 -4.4,-2.046 -9.00586,-3.78596 -13.91784,-5.01394 -2.456,-0.716 -4.91131,-1.02286 -7.47029,-1.53486 -2.558,-0.30698 -5.32174,-0.61482 -7.67572,-0.61482 -5.116,-0.205 -10.23328,0.20593 -15.24726,1.12693 -2.763,0.511 -5.52608,1.22722 -8.28908,2.1482 -0.92098,-1.22798 -1.84175,-2.35309 -2.86573,-3.47909 -1.739,-2.046 -3.37664,-3.68476 -5.32062,-5.62876 -2.047,-1.739001 -3.99116,-3.581391 -6.03816,-5.219371 -8.59598,-6.549 -19.03347,-10.84663 -29.77845,-12.89363 -10.74498,-2.046 -21.79796,-2.04531 -32.54294,-0.81731 -10.74398,1.22798 -21.18232,3.68347 -31.3133,6.85547 -2.559,0.819 -5.01502,1.63659 -7.573,2.55759 -2.558,0.921 -5.01358,1.84203 -7.36758,2.76303 l -3.58181,1.4336 -3.68452,1.63756 -3.68305,1.63757 -3.58181,1.841531 c -9.41498,4.80898 -18.21538,10.64254 -26.29936,16.98754 -3.78598,2.96698 -7.47085,5.93514 -10.95085,9.00514 -1.023,-0.102 -1.94399,-0.30739 -2.96699,-0.40939 -7.57298,-0.921 -15.55424,-0.81853 -23.02422,1.12545 -7.47098,1.945 -13.91789,5.423108 -19.44389,9.209108 -11.15398,7.57298 -19.9546,15.86314 -28.2436,23.23112 -4.09398,3.786 -8.08488,7.36697 -11.87088,10.74395 -3.68398,3.479 -7.16272,6.65227 -10.6427,9.51725 -3.581,3.07 -7.16371,5.62872 -10.64271,7.67572 -10.74498,2.35399 -21.59282,3.6838 -32.2348,3.5818 -2.14898,-0.103 -4.29708,-0.10343 -6.44608,-0.20543 -2.35398,-0.205 -4.70865,-0.51207 -6.95965,-0.71607 h -0.40939 -0.10271 -0.10125 l -0.81878,-0.10271 -1.53632,-0.30668 c -1.023,-0.204 -2.0457,-0.40982 -3.0697,-0.61482 -2.046,-0.40899 -4.09241,-1.02209 -6.13941,-1.63609 -7.98198,-2.66098 -15.34978,-6.65292 -21.89876,-11.66692 -12.99598,-9.92598 -22.41148,-23.43345 -26.81146,-37.55541 -2.149,-7.061 -2.96753,-14.326758 -1.84153,-20.978738 0.205,-1.637 0.71546,-3.37798 1.12546,-4.80998 0.307,-0.717 0.51031,-1.43222 0.81731,-2.1482 l 1.22818,-2.55907 1.22817,-1.94424 c 0.41,-0.716 0.9216,-1.43296 1.4336,-2.04696 0.921,-1.43198 2.14915,-2.66048 3.27513,-3.88848 4.707,-4.809981 10.64181,-8.493991 17.08879,-10.539991 3.173,-1.024 6.44621,-1.53453 9.72121,-1.84153 3.274,-0.205 6.54925,-3.6e-4 9.51725,0.51064 0.818,0.205 1.74006,0.41082 2.55906,0.61482 l 1.32942,0.30668 0.9215,0.30667 c 0.717,0.205 1.4322,0.41054 2.1482,0.71754 l 2.04696,0.92003 c 2.661,1.33 5.21859,2.96771 7.36757,4.91269 2.047,1.944 3.89009,4.194801 5.32209,6.548801 1.331,2.353 2.4557,4.91229 3.0697,7.47029 0.614,2.558 0.92154,5.21897 0.71754,7.77697 0,1.331 -0.30786,2.45582 -0.41086,3.5818 -0.102,0.614 -0.30664,1.32996 -0.51064,2.04696 l -0.30668,1.02275 -0.10418,0.20542 v 0.10125 l -0.20396,0.40939 c -1.638,4.605 -4.70748,8.493818 -8.69846,11.154818 -3.888,2.65998 -8.49263,4.09287 -12.89363,4.29787 -1.125,0.102 -2.25066,0 -3.27366,0 -1.126,-0.103 -1.94617,-0.20439 -3.07117,-0.40939 l -1.73881,-0.40939 c -0.307,0 -0.92189,-0.30739 -1.33089,-0.40939 -0.921,-0.307 -1.84131,-0.71646 -2.66031,-1.12546 -6.958,-3.582 -10.23293,-10.642738 -9.82393,-16.372718 0,-0.717 0.10197,-1.33096 0.20397,-2.04696 0.10198,-0.614 0.4091,-1.53493 0.5121,-2.25091 0.102,-0.41 0.51107,-1.12557 0.71607,-1.63757 0.205,-0.614 0.4095,-1.12557 0.9215,-1.63757 0.307,-0.51198 0.71574,-1.0236 1.02274,-1.4336 0.307,-0.511 0.81919,-0.81817 1.22817,-1.22817 0.41,-0.409 0.81918,-0.81699 1.22818,-1.12399 0.512,-0.307 0.92089,-0.61379 1.33089,-0.81879 0.818,-0.614 1.84131,-0.92117 2.66031,-1.22817 0.819,-0.409 1.73888,-0.51207 2.45488,-0.71607 0.409,-0.103 0.81992,-0.20543 1.12692,-0.20543 0.307,-0.102 0.71575,0 1.02275,0 0.614,0 1.22828,7.5e-4 1.74028,-0.10125 1.125,0.102 2.14902,0.30593 2.76302,0.40793 0.614,0.102 0.92003,0.20543 0.92003,0.20543 1.228,0.204 2.35331,-0.51157 2.66031,-1.63757 0.307,-1.125 -0.51081,-2.25135 -1.73881,-2.45635 0,0 -0.3075,-0.10196 -0.9215,-0.20396 -0.614,-0.103 -1.53474,-0.4101 -2.86574,-0.5121 -3.06998,-0.205 -7.57152,-0.10241 -12.38152,2.55759 -0.61398,0.307 -1.22752,0.71793 -1.84152,1.12693 -0.614,0.409 -1.12482,0.92013 -1.73882,1.43213 -0.51198,0.511 -1.22829,1.02357 -1.74027,1.63757 -0.512,0.614 -0.92161,1.22824 -1.43361,1.94424 -0.511,0.614 -0.92117,1.43221 -1.22817,2.14821 -0.409,0.81898 -0.71499,1.43334 -1.12399,2.45634 -0.205,0.819 -0.51282,1.43264 -0.61482,2.35364 -0.205,0.921 -0.4094,1.94474 -0.4094,2.86574 -0.307,3.68398 0.40964,7.87918 2.35364,11.768158 1.944,3.888 5.32094,7.57189 9.82392,10.02789 8.79998,4.80998 22.10453,5.01588 32.33751,-1.6361 5.117,-3.275 9.31221,-8.28953 11.56421,-14.224508 l 0.20396,-0.51211 c 0,0.102 0.10271,-0.40939 0.10271,-0.40939 l 0.10125,-0.20396 0.30668,-1.02275 c 0.205,-0.717 0.40982,-1.33097 0.61482,-2.04695 0.307,-1.637 0.71607,-3.2757 0.71607,-4.9127 0.307,-3.172 -7e-5,-6.44768 -0.71607,-9.72268 -0.716,-3.27398 -1.94381,-6.44678 -3.58181,-9.51578 -1.739,-3.069981 -3.99081,-5.832791 -6.54879,-8.391791 -2.661,-2.55798 -5.73159,-4.70609 -9.21057,-6.44607 l -2.66031,-1.22818 c -0.921,-0.409 -1.84203,-0.71574 -2.76303,-1.02274 l -0.71607,-0.20543 -0.30814,-0.10272 c 0.102,0 -0.51211,-0.10096 -0.51211,-0.20396 l -1.32942,-0.30814 c -0.921,-0.204 -1.63631,-0.40836 -2.66031,-0.61336 -15.96296,-3.27398 -33.4633,1.8422 -45.53928,13.61116 -1.432,1.535 -2.96644,3.07027 -4.09244,4.70727 -0.614,0.819001 -1.32953,1.636601 -1.84153,2.557601 l -0.81878,1.32942 -0.40939,0.71753 -0.20543,0.30668 c 0,-0.103 -0.30668,0.51064 -0.30668,0.51064 l -1.22817,2.55906 c -0.409,0.921 -0.81818,2.04642 -1.22819,3.17242 -0.716,2.04698 -1.2271,4.09313 -1.6361,6.24211 -1.53498,8.39198 -0.7169,16.885668 1.6361,25.072648 2.86601,9.82398 7.77897,19.34023 14.42995,27.83421 -4.19498,-1.74 -8.59634,-3.17289 -12.99634,-4.29787 -8.69799,-2.149 -17.9082,-2.96784 -26.91418,-1.53486 -2.251,0.307 -4.40051,0.81786 -6.65151,1.53486 -1.126,0.40898 -2.35338,0.71645 -3.37638,1.12545 l -2.76302,1.12546 c -0.103,0 -0.71782,0.30668 -0.61482,0.30668 l -0.4094,0.20543 -0.71606,0.40939 -1.43361,0.81878 c -1.023,0.511 -1.84202,1.12482 -2.76302,1.73882 -1.841998,1.126 -3.478188,2.55848 -5.115188,3.88848 -12.68998,11.15398 -18.21589,27.63014 -14.63391,42.4681 0.205,0.819 0.51207,1.63835 0.71607,2.45635 l 0.30668,1.22817 c 0,0.103 0.20543,0.51211 0.20543,0.51211 l 0.10124,0.30668 0.30668,0.61482 c 0.41,0.819 0.71793,1.73959 1.12693,2.55759 l 1.32942,2.45635 c 1.945,3.173 4.19665,6.13975 6.95965,8.59575 2.763,2.456 5.73116,4.5024 9.005138,6.1394 3.275,1.535 6.65162,2.76385 10.1306,3.37785 3.48,0.614 6.95828,0.92035 10.43728,0.61335 1.638,0 3.48039,-0.40835 5.21937,-0.61335 0.819,-0.205 1.43339,-0.40911 2.25239,-0.51211 l 1.12546,-0.30814 0.30668,-0.10125 0.5121,-0.10271 0.61335,-0.20397 c 6.345,-2.04698 11.76873,-6.03915 15.24874,-10.84813 7.26498,-9.51698 6.95751,-21.89815 1.84153,-30.08513 -2.661,-4.19598 -6.65245,-7.36857 -10.74543,-9.21057 -4.196,-1.842 -8.59597,-2.45592 -12.58695,-2.25092 -1.024,0 -2.0467,0.20439 -3.0697,0.40939 -1.024,0.205 -1.74007,0.40836 -2.55907,0.61336 -1.12498,0.307 -1.73931,0.71721 -2.66031,1.02421 -0.81898,0.307 -1.63763,0.61346 -2.35363,1.12546 -0.716,0.512 -1.43296,0.92042 -2.04696,1.32942 -0.61398,0.41 -1.12481,1.02385 -1.73881,1.53485 -0.512,0.512 -1.12585,1.02503 -1.53485,1.63903 -0.41,0.614 -0.81993,1.12482 -1.12693,1.73882 -2.86498,4.50298 -2.96655,8.6992 -2.76155,11.5642 0.205,1.228 0.40835,2.04631 0.61335,2.66031 0.102,0.614 0.20543,0.9215 0.20543,0.9215 0.307,1.125 1.43084,1.84109 2.65884,1.63609 1.228,-0.20498 2.048,-1.32888 1.843,-2.45488 0,0 -0.10196,-0.30749 -0.20396,-0.92149 -0.103,-0.614 -0.30711,-1.5346 -0.51211,-2.5576 0,-0.512 -7.5e-4,-1.02503 0.10125,-1.63903 v -0.92003 c 0.103,-0.307 0.20614,-0.71575 0.30814,-1.02275 0.205,-0.71598 0.30607,-1.5361 0.71607,-2.3551 0.409,-0.81798 0.61489,-1.73788 1.33089,-2.45488 0.307,-0.409 0.61303,-0.81817 0.92003,-1.22817 0.307,-0.409 0.81917,-0.71646 1.22817,-1.12546 0.409,-0.41 0.81989,-0.81846 1.33089,-1.12546 0.512,-0.307 1.02385,-0.6145 1.53485,-0.9215 0.512,-0.409 1.12481,-0.61378 1.73881,-0.81878 0.614,-0.204 1.331,-0.51107 1.843,-0.71607 0.716,-0.102 1.73963,-0.4091 2.35363,-0.5121 0.716,-0.102 1.33067,-0.20396 2.14967,-0.20396 6.14,-0.41 13.71118,2.6594 17.49818,9.10638 0.409,0.819 0.92117,1.63807 1.22817,2.55907 0.102,0.409 0.40939,1.02317 0.40939,1.22817 l 0.40793,1.63757 c 0.30701,1.12598 0.30711,1.94327 0.51211,2.86427 0,1.024 0.102,2.0467 0,3.0697 -0.205,4.09398 -1.73956,8.39231 -4.60456,12.07631 -2.76298,3.684 -6.95888,6.55011 -11.87088,8.08511 l -0.40939,0.10125 h -0.10125 l -0.30667,0.10271 -1.12693,0.20396 c -0.716,0.205 -1.5342,0.40911 -2.1482,0.51211 -1.33,0.102 -2.45696,0.40939 -3.88996,0.40939 -2.76298,0.205 -5.52607,-0.10207 -8.28907,-0.71607 -2.763,-0.512 -5.42193,-1.63774 -7.98093,-2.86574 -2.558,-1.33098 -4.9119,-3.06894 -7.060898,-5.01394 -2.149,-1.944 -3.7871,-4.29894 -5.32208,-6.85694 l -1.02275,-1.94277 c -0.307,-0.614 -0.51178,-1.33096 -0.81878,-2.04696 l -0.30668,-0.82025 -0.30814,-1.22817 c -0.205,-0.818 -0.40836,-1.63617 -0.61336,-2.35217 -0.512,-2.66098 -0.7161,-5.83318 -0.5121,-8.80118 0.307,-3.06998 0.92097,-6.13987 2.04695,-9.10785 2.149,-5.935 6.03855,-11.46062 11.257528,-15.8606 1.33,-1.024 2.66016,-2.15017 4.19516,-3.07117 0.717,-0.41 1.43192,-0.92089 2.25092,-1.33089 l 2.04696,-1.12399 2.76302,-1.12693 c 0.819,-0.307 1.53464,-0.51207 2.35364,-0.71607 1.63698,-0.41 3.37737,-0.81846 5.21937,-1.12546 7.16298,-1.023 14.94014,-0.30643 22.51212,1.63757 15.14597,4.09398 29.57494,12.89397 40.31992,24.96992 5.32098,6.037 9.61923,12.99594 12.48423,20.36392 0.614,1.842 1.33028,3.78501 1.74028,5.73001 0.307,0.921 0.51107,1.94474 0.71607,2.86574 l 0.30667,1.4336 0.10272,0.7146 v 0.10272 0.40939 c 0.307,2.149 0.51178,4.29926 0.81878,6.55026 0.102,2.046 0.20543,3.99069 0.20543,6.03669 0.102,9.92698 -1.33195,19.95414 -3.88995,30.08512 -2.149,3.275 -4.91136,6.55111 -8.18636,9.92811 -3.069,3.172 -6.54933,6.4486 -10.23331,9.92668 -3.684,3.48 -7.57174,7.1591 -11.56274,11.0491 -7.98198,7.78 -16.78294,15.961 -24.96995,26.3008 -3.99098,5.22 -7.77692,11.1501 -9.82392,18.1101 -2.149,6.96 -2.25117,14.4296 -1.22817,21.3896 0.103,0.92 0.30639,1.8401 0.40939,2.7601 -3.275,3.38 -6.54923,6.7608 -9.72121,10.2406 -6.754,7.57 -12.99673,15.7491 -18.21571,24.5591 l -1.94425,3.2708 -1.73881,3.3793 -1.740278,3.4805 -1.53485,3.3691 c -1.023,2.15 -2.04745,4.5113 -2.96845,6.8613 -1.023,2.35 -1.84203,4.7094 -2.76303,7.0594 -3.37698,9.42 -6.03659,19.2395 -7.36757,29.1695 -1.33,10.02 -1.33097,20.2606 0.92003,30.2906 2.14898,10.02 6.85714,19.75 13.81512,27.73 1.841998,1.94 3.683758,3.7802 5.628758,5.6302 2.149,1.84 3.78716,3.2698 6.03816,4.9098 1.228,0.92 2.45505,1.8403 3.68305,2.6603 -0.921,2.56 -1.73892,5.1199 -2.25092,7.7799 -1.023,4.7 -1.43317,9.5101 -1.22817,14.2201 0,2.15 0.40907,4.7092 0.71607,7.1592 0.512,2.36 0.92203,4.7097 1.63903,6.9597 1.33,4.61 3.27287,8.9107 5.42187,13.0007 4.29798,8.29 9.82401,15.6605 15.14601,22.7205 2.65998,3.48 5.21968,6.9588 7.87968,10.4388 2.559,3.37 4.91158,6.9499 7.36759,10.4299 2.45598,3.48 4.91161,7.0602 7.16361,10.4402 1.125,1.74 2.25109,3.4809 3.47909,5.2209 1.126,1.74 2.14942,3.4793 3.17242,5.2193 4.29798,6.86 7.67542,14.02 10.74542,21.08 5.62898,14.12 7.47051,29.0598 6.65151,43.1798 -0.205,3.48 -0.51146,6.9606 -1.12546,10.2406 -0.716,0.61 -1.43267,1.2303 -2.14967,1.7403 -2.353,1.74 -5.11493,3.1693 -7.98093,4.1893 -11.46098,4.1 -24.86739,2.7705 -33.87237,-3.1695 -4.503,-2.97 -7.67482,-7.1596 -9.31182,-11.7696 -0.819,-2.25 -1.12589,-4.7107 -1.33089,-7.1607 -0.204,-2.35 -0.10232,-4.7096 0.30668,-6.9596 0.41,-2.25 1.1252,-4.3009 2.1482,-6.1409 1.126,-1.84 2.45591,-3.3787 4.09391,-4.7087 3.274,-2.66 7.36882,-4.2907 11.15482,-5.3207 3.78598,-0.92 7.47,-0.3099 10.54,1.0301 3.06998,1.33 5.52561,3.3702 7.16361,5.5202 1.637,2.15 2.45635,4.499 2.45635,6.449 0.102,2.04 -0.61389,3.6813 -1.33089,4.9113 -1.535,2.4598 -3.1717,3.3793 -3.0697,3.3793 l 1.12546,0.6104 v 0.1 c 0.614,-0.41 1.94338,-1.3308 3.37638,-3.2708 1.023,-1.33 1.94395,-3.3798 2.04695,-5.8298 0.204,-2.46 -0.61363,-5.3297 -2.35363,-7.9897 -1.74,-2.66 -4.4004,-5.2194 -7.9824,-6.9494 -3.58198,-1.74 -8.18665,-2.6703 -12.89363,-1.7403 -2.354,0.51 -4.50324,1.0197 -6.75422,2.0397 -2.251,0.92 -4.5028,2.0504 -6.5488,3.6904 -2.047,1.63 -3.88909,3.5799 -5.32209,5.8297 -1.32998,2.25 -2.35227,4.8103 -2.86427,7.4703 -0.512,2.66 -0.6141,5.3193 -0.5121,8.0793 0.205,2.56 0.51113,5.4307 1.43213,8.1907 1.74,5.63 5.83382,10.8502 11.15482,14.3302 5.42398,3.58 11.87112,5.629 18.62511,6.339 6.75398,0.62 13.81492,-0.099 20.36392,-2.449 2.25198,-0.82 4.50252,-1.8498 6.6515,-3.1798 -1.73998,7.47 -4.29802,14.64 -7.573,21.08 -5.833,11.47 -14.22446,20.9794 -24.04845,27.3294 -4.91198,3.17 -10.13099,5.6303 -15.34997,7.4703 -5.321,1.63 -10.64163,2.7593 -15.86061,3.2693 -1.33,0.21 -2.55849,0.2098 -3.88849,0.2098 l -1.94571,0.1013 h -0.51064 -0.20543 -1.02274 c -1.331,-0.1 -2.6605,-0.1013 -3.88848,-0.2113 -1.126,-0.1 -2.14915,-0.4092 -3.275128,-0.5092 -4.298,-0.82 -8.69858,-2.2508 -12.17756,-4.3008 -7.36798,-3.88 -12.38226,-9.5091 -15.24726,-14.9391 -2.968,-5.42 -3.78577,-10.6406 -3.78577,-14.8306 0.102,-2.05 0.20335,-4.0004 0.61335,-5.5304 0.307,-1.54 0.61446,-2.87 1.12546,-3.89 0.819,-2.05 1.22818,-3.1694 1.22818,-3.1694 l 0.10271,-0.3097 c 0.511,-1.23 -0.20485,-2.6609 -1.53485,-3.1709 -1.331,-0.51 -2.96856,0.1007 -3.48056,1.4307 0,0 -0.51085,1.2303 -1.53485,3.5803 -0.614,1.13 -1.02314,2.6592 -1.43214,4.5092 -0.61398,1.84 -0.81921,3.9902 -1.02421,6.4402 -0.204,4.92 0.61497,11.1609 3.88995,17.7109 3.275,6.44 8.90295,13.3001 17.39693,18.1101 4.195,2.56 9.00521,4.399 14.53119,5.529 1.433,0.2 2.864878,0.5102 4.297878,0.7102 1.33,0.1 2.55748,0.1 3.88848,0.2098 l 1.02275,0.1 h 0.40939 v 312.22026 h 7.26926 v -6.5503 h -0.003 V 767.86264 h 0.10125 c 5.73098,-0.51 11.76932,-1.5291 17.80632,-3.3691 5.93598,-1.95 11.97336,-4.611 17.60237,-8.091 11.25596,-7.06 20.8751,-17.5991 27.3221,-30.2891 5.52598,-10.6398 9.1077,-22.5105 10.6427,-35.1005 3.889,-4.91 6.85751,-10.6406 8.49451,-16.7806 1.73998,-6.65 1.94344,-13.5098 1.12546,-20.2598 -0.819,-6.76 -2.76266,-13.3095 -5.11666,-19.5495 -4.81,-12.58 -11.6665,-24.3502 -19.0345,-35.4102 -7.36798,-11.0498 -15.34998,-21.4899 -22.92298,-31.5099 -7.67499,-10.03 -14.73648,-19.8593 -19.23846,-30.1893 -3.684,-8.09 -5.52566,-16.581 -5.11666,-24.361 8.80098,4.1 18.52233,6.6499 28.34632,6.8599 10.84798,0.2 21.89936,-2.1495 31.10934,-7.9795 4.502,-2.97 8.5961,-6.7596 11.0521,-11.7696 1.125,-2.46 1.84181,-5.221 1.73881,-8.091 -0.102,-2.86 -1.22684,-5.6194 -2.65884,-7.9794 l -1.02421,-1.5305 -1.33089,-1.639 c -0.921,-1.13 -1.94299,-1.9402 -2.96699,-2.8702 -2.149,-1.63 -4.5019,-3.1705 -7.0609,-4.2905 -5.01398,-2.25 -10.43908,-3.2793 -15.86208,-3.3793 -21.59296,-0.31 -41.95589,11.8692 -51.06387,29.369 0,0.1 -0.10271,0.1011 -0.10271,0.2011 -0.716,-0.51 -1.32996,-1.0205 -2.04696,-1.5305 -0.921,-0.72 -1.94474,-1.5407 -2.86574,-2.4607 -1.842,-2.15 -3.88799,-4.8093 -5.93397,-8.0793 -3.377,-5.22 -6.857198,-12.0795 -8.801178,-20.4695 -2.047,-8.29 -2.35439,-18.1105 -0.40939,-28.4505 1.94398,-10.33 6.343838,-21.2809 12.074838,-32.0309 5.83298,-10.74 13.81474,-21.2792 23.94572,-30.289 3.786,-3.27 7.77803,-6.3406 12.17903,-9.1006 3.78599,3.58 8.28935,6.6508 12.99635,9.0008 7.36798,3.58 15.45099,5.7298 24.04697,5.9398 4.29798,0.1 8.69982,-0.4101 12.9978,-1.9501 2.149,-0.82 4.29712,-1.9403 6.24212,-3.5803 1.944,-1.64 3.47888,-3.7897 4.29788,-6.0397 0.409,-1.12 0.71531,-2.3505 0.81731,-3.4805 0,-0.3 0.10272,-0.6101 0.10272,-0.9201 v -1.0198 c 0,-0.51 2.8e-4,-0.8192 -0.10272,-1.4292 -0.204,-1.33 -0.40831,-2.4606 -0.81731,-3.5906 -0.41,-1.12 -1.02428,-2.2507 -1.74028,-3.2707 -2.968,-3.99 -7.47094,-6.1393 -11.66692,-7.2693 -8.49298,-2.15 -16.78138,-1.0197 -24.45636,0.8203 -6.243,1.64 -12.17763,3.9899 -17.70361,6.8599 -0.512,-0.62 -1.12585,-1.3299 -1.53485,-2.0499 -1.74,-2.56 -3.27489,-5.111 -4.29789,-7.981 -0.102,-0.2 -0.20543,-0.509 -0.20543,-0.719 9.82399,-9.21 19.85317,-18.4209 28.96115,-29.0609 6.34398,-7.47 11.97284,-15.8597 16.88482,-24.1497 4.912,-8.39 9.2092,-17.0899 12.6882,-25.8899 7.06098,-17.70102 11.25638,-36.22352 10.94938,-54.74548 -0.102,-2.354 -0.20439,-4.7069 -0.40939,-7.0609 -0.307,-2.149 -0.51178,-4.29781 -0.81878,-6.54879 l -0.10125,-0.40939 c 0,-0.103 -0.10271,-0.71782 -0.10271,-0.61482 l -0.30668,-0.71607 -0.40939,-1.73882 c -0.204,-1.12598 -0.51179,-2.35456 -0.81879,-3.48056 -0.61398,-2.25098 -1.43338,-4.50252 -2.25238,-6.6515 -2.763,-6.754 -6.44592,-13.09837 -10.94792,-18.72635 1.023,0.40898 2.04495,0.81817 3.17095,1.22817 2.354,0.716 4.70762,1.53449 7.16362,2.04549 1.22798,0.307 2.45652,0.61378 3.68452,0.81878 l 1.84152,0.30815 0.9215,0.20396 c 0,0 0.61307,0.10271 0.71607,0.10271 h 0.40939 c 2.354,0.307 4.60567,0.51178 6.95965,0.81878 2.558,0.102 5.11526,0.20368 7.67426,0.30668 19.95496,0.307 39.80762,-3.68333 58.73958,-10.23331 9.51698,-3.274 18.72651,-7.26588 27.73149,-11.87088 8.90298,-4.60498 17.90897,-9.82338 25.88997,-15.75936 11.35898,-8.49298 21.28607,-17.90891 31.21205,-27.01689 0.205,0.103 0.51207,0.10343 0.71607,0.20543 2.96798,0.921 5.8335,2.3542 8.4945,3.9912 0.716,0.512 1.4322,0.9216 2.1482,1.4336 -3.06998,5.11598 -5.62757,10.64098 -7.36757,16.47396 -2.047,7.164 -3.17178,14.83974 -0.81878,22.82174 1.12598,3.88798 3.47898,8.08367 7.77696,10.84665 1.023,0.614 2.2511,1.22857 3.4791,1.63757 1.22798,0.41 2.45695,0.61378 3.88995,0.81878 0.716,0.102 1.02285,0.10125 1.53485,0.10125 h 1.12546 c 0.307,0 0.61303,7.5e-4 0.92003,-0.10125 1.22798,-0.102 2.55923,-0.40907 3.78723,-0.71607 2.456,-0.81898 4.8088,-2.25221 6.5488,-3.99119 1.73998,-1.74 2.96777,-3.78672 3.78577,-5.83272 1.73998,-4.094 2.14895,-8.18804 2.04695,-12.17902 -0.205,-7.982 -2.55708,-15.55488 -6.44608,-22.41088 -2.55798,-4.39998 -5.73196,-8.59557 -9.61996,-12.17755 2.967,-4.093 6.24221,-7.87878 9.72121,-11.358778 9.61998,-9.51698 20.97925,-16.88516 32.44023,-22.30816 11.56396,-5.42398 23.2305,-9.516771 34.38446,-11.358771 11.15398,-1.842 21.59154,-1.53461 30.49452,0.40939 8.90298,1.842 16.27077,5.116361 21.89877,8.186361 3.47998,1.944 6.34593,3.88805 8.69993,5.52605 0.921,0.921 1.8416,1.84202 2.5576,2.76302 0.614,0.614 1.12656,1.22753 1.63756,1.84153 -0.102,0 -0.10343,0.10271 -0.20543,0.10271 -18.82996,8.596 -31.92773,27.528528 -31.51873,47.687488 0.102,5.01498 1.12581,10.13017 3.58181,14.73515 1.125,2.354 2.76402,4.50326 4.60602,6.55026 1.023,0.921 1.8417,1.94403 3.0697,2.76303 l 1.73881,1.32942 1.63757,0.9215 c 2.558,1.43298 5.42305,2.45559 8.49303,2.55758 3.07,0.103 6.03894,-0.51009 8.69994,-1.63609 5.32098,-2.251 9.41396,-6.03833 12.58694,-10.23331 6.14,-8.59598 8.80004,-18.93287 8.49304,-29.06385 -0.307,-9.20998 -2.96806,-18.21509 -7.36904,-26.402068 8.39198,-0.409 17.49911,1.33028 26.19811,4.70726 11.05196,4.195998 21.59253,10.848768 32.33751,18.011748 10.74498,7.163 21.89868,14.53115 33.76964,21.38813 11.86998,6.856 24.45685,13.20016 37.96481,17.70214 6.754,2.252 13.81621,3.99098 20.98021,4.80998 7.16298,0.81899 14.63235,0.61426 21.69333,-1.02274 6.55,-1.433 12.68929,-4.2977 18.01029,-7.87968 13.50796,-1.433 26.29915,-4.81066 37.65817,-9.92664 13.5069,-6.038 24.8673,-14.9406 32.4373,-25.48058 3.7898,-5.21898 6.6499,-10.8482 8.6999,-16.374178 0.3,-1.023 0.7098,-2.04642 1.0198,-3.17242 H 2155.1158 v -6.85547 H 823.94979 c 0.41,-2.252 0.7201,-4.40126 1.0301,-6.55026 0.2,-1.33 0.101,-2.6602 0.201,-3.9912 l 0.1101,-1.94277 v -0.51211 -0.20396 -0.51211 l -0.1101,-0.92149 c -0.1,-1.228 -0.201,-2.45653 -0.201,-3.68453 -0.21,-1.329981 -0.509,-2.660211 -0.719,-3.991191 -1.23,-5.116 -3.1698,-9.7207 -5.8298,-13.6097 -5.12,-7.981979 -12.4912,-13.199999 -19.3412,-16.269999 -6.3074,-2.78218 -12.4428,-3.63249 -17.4981,-3.61556 z M 483.50967,58.866871 c 5.00148,-0.0127 9.96513,0.34608 14.82613,1.16508 5.93498,1.023 11.76825,2.76192 17.09025,5.2179 -3.582,-1.43298 -7.5736,-2.76178 -11.9736,-3.78576 -9.20998,-2.149 -20.26142,-2.6605 -31.8254,-0.9215 -5.73,0.819 -11.76861,2.25191 -17.70361,4.09391 -5.93598,1.842 -12.076,3.99151 -18.113,6.651511 -12.07596,5.32098 -24.15045,12.58689 -34.58843,22.41087 -3.68398,3.479 -7.16303,7.162078 -10.33603,11.256058 -0.614,-0.41 -1.3295,-0.92089 -2.04548,-1.33089 -2.149,-1.33 -4.40241,-2.45609 -6.85841,-3.47909 2.047,-1.534998 3.78823,-3.068838 5.63023,-4.501838 7.57198,-6.24198 15.45099,-11.87016 24.04697,-16.57814 8.49398,-4.707 18.01084,-8.69813 27.42482,-11.972131 9.51698,-3.275 19.34154,-5.83262 29.37052,-7.16362 5.014,-0.66498 10.05354,-1.04961 15.05504,-1.06236 z m 80.20108,24.889231 c 1.13526,0.003 2.26677,0.0421 3.39252,0.11886 2.55798,0 4.50397,0.40907 6.65297,0.71607 2.149,0.512 4.39981,0.81885 6.54879,1.53485 4.298,1.126 8.49324,2.86598 12.48424,4.80998 7.98098,3.88898 15.45228,8.90237 22.82026,13.916368 3.684,2.55898 7.36882,5.11702 11.15482,7.573 3.78598,2.456 7.67477,4.81062 11.35877,7.16362 15.04298,9.31298 30.29101,18.11244 46.76599,24.04844 15.14596,5.11598 30.69955,6.9585 45.64053,6.6515 -2.354,1.024 -4.81035,1.73964 -7.26633,2.35364 -12.79098,3.06998 -26.91209,0.92058 -39.90905,-3.17242 -13.09798,-4.19598 -25.58348,-10.33584 -37.35146,-16.88482 -11.87098,-6.652 -23.02438,-13.91804 -33.87236,-20.87602 -10.84698,-6.959 -21.79703,-13.611038 -33.25901,-17.909038 -9.41398,-3.581 -19.44301,-5.32084 -28.65299,-4.50184 0,-0.103 -0.10125,-0.10343 -0.10125,-0.20543 -0.71698,-1.126 -1.43338,-2.35262 -2.25238,-3.47762 1.945,-0.307 3.78676,-0.71721 5.62876,-1.02421 3.3765,-0.537 6.81137,-0.84452 10.21718,-0.83493 z m -21.88263,4.00734 c 0.614,0.921 1.22753,1.73931 1.84153,2.66031 -4.912,1.126 -9.41549,2.96839 -13.30449,5.21937 -2.14898,1.228 -4.09272,2.55849 -5.83272,3.88849 -0.204,0.205 -0.51107,0.40835 -0.71607,0.613348 4.605,-5.013978 10.33688,-9.003698 16.68086,-11.766698 0.41,-0.205 0.92089,-0.41082 1.33089,-0.61482 z m 3.27366,4.80852 c 4.81,7.981978 7.77736,16.783728 8.18636,25.788708 0.409,9.20998 -1.94359,18.5227 -7.36757,25.99268 -2.763,3.684 -6.14032,6.85651 -10.23332,8.49451 -2.047,0.818 -4.19512,1.33017 -6.24212,1.22817 -2.04598,0 -4.09344,-0.71728 -5.93544,-1.74028 l -1.63756,-0.9215 -1.22671,-0.92003 c -0.819,-0.512 -1.5361,-1.43367 -2.3551,-2.14967 -1.433,-1.637 -2.76205,-3.37633 -3.68305,-5.42333 -1.944,-3.888 -2.86574,-8.28967 -2.86574,-12.68967 0,-7.16298 1.94435,-14.32632 5.42333,-20.7733 1.126,-1.432 2.45549,-2.86518 3.88849,-4.19516 5.83298,-5.423998 14.02045,-10.644148 24.04843,-12.691128 z M 355.52426,105.13102 c 1.30547,-0.001 2.62187,0.0457 3.94571,0.13207 -8.08398,7.26498 -16.06613,14.3252 -24.35511,20.2612 -15.55498,11.15398 -32.74727,19.75068 -50.55323,25.99268 -2.456,0.819 -4.91159,1.63763 -7.36757,2.35363 3.68398,-2.558 7.26611,-5.52648 11.05209,-8.69846 3.889,-3.173 8.08499,-6.54962 12.38299,-10.1306 4.298,-3.48 8.90198,-7.16414 13.50698,-10.84814 4.70698,-3.684 9.62035,-7.36724 14.83933,-10.64124 5.219,-3.275 10.84566,-6.03906 16.78064,-7.36904 2.2005,-0.512 4.45274,-0.81903 6.74249,-0.95965 1.00176,-0.0615 2.01031,-0.0916 3.02568,-0.0924 z m 34.64566,12.71901 c 2.35398,2.353 4.3994,4.91199 6.1394,7.77697 3.275,5.526 5.62887,11.76802 6.14087,18.113 0.205,3.07 -0.10175,6.24143 -1.02275,8.90243 -1.024,2.66098 -2.66098,4.50262 -4.80998,5.32062 -0.614,0.205 -1.12699,0.41086 -1.84299,0.41086 -0.205,0 -0.30711,-7.6e-4 -0.51211,0.10124 h -0.40792 -1.33089 c -1.024,-0.102 -2.35338,-0.40874 -3.37638,-1.02274 -2.149,-1.228 -3.78698,-3.68428 -4.80998,-6.55026 -1.944,-5.833 -1.33032,-12.68875 0.30668,-19.13575 1.228,-4.80998 3.17205,-9.41437 5.52605,-13.91637 z M 193.486,257.02253 c -0.81898,2.251 -1.63659,4.6016 -2.55759,6.8496 -6.75398,16.58 -15.96394,32.6498 -27.93692,47.1798 -6.447,7.78 -14.02054,15.1405 -21.79753,22.7205 -0.307,-4.4 -0.10326,-8.6995 1.02274,-12.7895 1.433,-5.63 4.39971,-10.751 7.87969,-15.661 3.479,-4.91 7.46978,-9.4196 11.35878,-13.8196 3.991,-4.4 7.88022,-8.5896 11.5642,-12.5796 3.787,-3.99 7.36814,-7.88 10.84814,-11.57 3.377,-3.58 6.65051,-6.95822 9.61849,-10.3302 z m -57.92081,97.9296 c 1.024,2.25 2.25224,4.3007 3.78724,6.3507 0.409,0.61 0.91967,1.2201 1.43067,1.8401 -4.298,2.96 -8.39086,6.24 -12.07484,9.62 -10.43798,9.7198 -18.31773,20.9689 -23.94573,32.2289 -2.86498,5.63 -5.218158,11.2607 -7.162138,16.8907 -1.945,5.52 -3.48106,11.1495 -4.40206,16.4695 -1.944,10.75 -1.3295,20.9802 0.9215,29.6802 1.024,4.09 2.45621,7.7804 3.99119,11.1504 -2.65998,-4.91 -4.50276,-10.3306 -5.62876,-15.8606 -1.74,-9.11 -1.53423,-18.6199 -0.10125,-27.9399 1.535,-9.31 4.19426,-18.5189 7.674258,-27.4189 3.47898,-8.8 7.77691,-17.7004 12.79091,-25.5804 5.11698,-7.99 11.15534,-15.4597 17.80632,-22.4197 1.638,-1.63 3.27571,-3.371 4.91269,-5.011 z m 45.22675,0.8731 c 3.15236,-0.01 6.23764,0.3431 9.11226,1.1768 3.06998,0.92 5.7309,2.4506 7.0609,4.4006 0.614,0.92 1.02246,2.2495 1.12546,3.1695 v 1.2311 0.1996 c 0,0.21 2.8e-4,0.3091 -0.10272,0.5091 -0.102,0.62 -0.30664,1.1303 -0.51064,1.7403 -0.819,2.05 -2.86548,3.5907 -5.73148,4.5107 -2.86498,0.92 -6.14026,1.2198 -9.51724,1.0198 -6.754,-0.41 -13.50819,-2.5601 -19.34117,-5.7301 -3.07,-1.6398 -5.83233,-3.58 -8.39033,-5.73 4.707,-2.15 9.72189,-3.9896 14.83787,-5.1196 3.4285,-0.765 6.98478,-1.2758 10.4769,-1.3646 0.32738,-0.01 0.65408,-0.012 0.98019,-0.013 z M 167.081,475.80773 c 0.23982,-4e-4 0.47916,9e-4 0.719,0 4.708,0 9.41518,0.8103 13.61116,2.6603 2.149,0.82 3.99101,2.0405 5.73001,3.3705 0.717,0.72 1.73964,1.4394 2.35364,2.2494 l 1.02274,1.1299 1.02421,1.5407 c 1.125,1.74 1.84153,3.5802 1.84153,5.5202 0.102,1.95 -0.40989,3.8898 -1.33089,5.8298 -1.842,3.79 -5.21839,7.0702 -9.10639,9.5202 -7.98198,5.02 -18.01169,7.2698 -27.83567,6.8598 -9.61899,-0.41 -19.13628,-3.1701 -27.63026,-7.6801 2.149,-9.31 7.77818,-16.981 13.61116,-22.4108 1.433,-1.33 2.96684,-2.5589 4.50184,-3.5789 6.64174,-3.1678 14.0535,-5.0038 21.48792,-5.0154 z m -31.41309,11.055 c -0.307,0.3 -0.41082,0.5102 -0.61482,0.7102 -1.433,1.64 -2.86593,3.4792 -4.09391,5.4292 -2.353,3.68 -4.3993,7.8798 -5.6273,12.4798 -0.921,-0.51 -1.94474,-1.1188 -2.86574,-1.7388 0.204,-0.41 0.40982,-0.8209 0.61482,-1.3309 2.967,-5.83 7.26495,-11.2495 12.58695,-15.5495 z m -15.5554,22.7205 c 1.228,0.71 2.45652,1.4296 3.68452,2.0396 0.102,0 0.10243,0.1 0.20543,0.1 -0.921,8.6 1.02251,17.9102 4.80851,26.7102 4.503,10.75 11.66623,20.8796 19.13722,31.0096 7.46998,10.13 15.24689,20.5699 22.41087,31.6199 7.061,11.05 13.61002,22.6195 18.113,34.7895 4.4,12.18 6.65038,25.2802 3.37638,37.2502 -0.614,2.36 -1.53506,4.6101 -2.55906,6.7601 0.41,-13.92 -1.63617,-28.4494 -7.16215,-42.5694 -6.13998,-15.35 -15.65702,-29.5809 -25.686,-43.6009 -2.456,-3.48 -5.01474,-7.0597 -7.67572,-10.6397 -2.66001,-3.58 -5.42339,-6.9603 -8.18637,-10.4403 -5.424,-6.85 -10.8476,-13.8095 -14.94058,-21.2795 -2.047,-3.79 -3.88866,-7.5701 -5.11666,-11.5701 -0.716,-1.94 -1.12557,-4.0893 -1.63757,-6.0293 -0.307,-2.05 -0.71607,-3.8909 -0.71607,-6.2509 -0.307,-4.19 7e-5,-8.4897 0.71607,-12.6897 0.307,-1.73 0.71618,-3.4691 1.22818,-5.2091 z" id="path1431" inkscape:label="Frame top left" />
      </g>
    </g>
  </g>
</svg>
